<svg xmlns="http://www.w3.org/2000/svg" viewBox="0 0 174 182.1"><defs><style>.cls-1{fill:#31333a;}.cls-2{fill:#fff;stroke:#f2e4d0;stroke-miterlimit:10;stroke-width:1.34px;}.cls-3{fill:#4761a0;}.cls-4{fill:#d8bf9e;}.cls-5{fill:#993f40;}.cls-6{fill:#25262b;}</style></defs><title>characters</title><g id="Layer_6" data-name="Layer 6"><path class="cls-1" d="M27.14,41.94c.62,2.88,1.14,5.76,1.72,8.64l1.57,8.65c1,5.77,2,11.54,2.92,17.3l1.36,8.66L36,93.84l1.15,8.66,1.08,8.66c.66,5.78,2,11.54,3,17.31a66.74,66.74,0,0,1,.9,8.66,59,59,0,0,1-.37,8.7,97.07,97.07,0,0,1-3.56,17.45A85.42,85.42,0,0,1,35,172a56.46,56.46,0,0,1-4.63,8.79l-2.7.07a57.3,57.3,0,0,1-5-8.57,84.78,84.78,0,0,1-3.57-8.61,97.83,97.83,0,0,1-4.37-17.27,61.64,61.64,0,0,1-.77-8.66,65.1,65.1,0,0,1,.51-8.7c.73-5.81,1.76-11.62,2.16-17.42l.67-8.71.75-8.7.87-8.7,1-8.71C20.52,71,21.19,65.24,22,59.43l1.17-8.72c.44-2.9.83-5.81,1.31-8.71Z"/><path class="cls-1" d="M146.51,42.82c.49,2.86.9,5.72,1.34,8.58l1.2,8.58c.8,5.72,1.49,11.44,2.19,17.16l1,8.57.9,8.58.79,8.57.7,8.57c.42,5.71,1.47,11.44,2.22,17.16a61.5,61.5,0,0,1,.54,8.56,58.49,58.49,0,0,1-.74,8.54,95.1,95.1,0,0,1-4.3,17,84.93,84.93,0,0,1-3.54,8.49,56.14,56.14,0,0,1-5,8.45l-2.7,0a55.83,55.83,0,0,1-4.65-8.65,84.42,84.42,0,0,1-3.2-8.62,94.48,94.48,0,0,1-3.62-17.18,58.62,58.62,0,0,1-.4-8.57,63.38,63.38,0,0,1,.87-8.54c1-5.68,2.26-11.36,2.91-17.05l1-8.54,1.12-8.53,1.25-8.53,1.32-8.53c.92-5.69,1.84-11.37,2.86-17.06l1.54-8.52c.56-2.84,1.08-5.68,1.68-8.52Z"/><path class="cls-2" d="M40.7,32.23C34.1,38,32.9,59.1,33.55,76.11c.14,3.76-10-12.11-9.95-3.61,0,21.39,11,21.26,12.63,29.76.9,4.8,5.59,17.55,7.17,20.39,9.45,17,35.82,30.48,43.94,30.48,7.49,0,34.1-14.49,44.25-34.55,3.89-7.7,6.7-24.84,6.7-24.84S149.55,75.41,148,71s-9.26,3.07-9.26,3.07l.42-19.54a21.75,21.75,0,0,0-.41-4.83C135.87,35.62,125.24,26,112.43,22.48,94.66,17.59,65.56,10.67,40.7,32.23Z"/><path class="cls-3" d="M60.75,79.11a7.63,7.63,0,1,1-6.28.16"/><path class="cls-1" d="M34.45,72.25c1.4-1.21,2.8-2.41,4.22-3.59l2.12-1.78a5.5,5.5,0,0,1,.72-.5,6,6,0,0,1,.78-.36,9.4,9.4,0,0,1,1.53-.45,18.23,18.23,0,0,1,3-.37c.47,0,1,0,1.5,0l1.39,0c1.84,0,3.68.13,5.52.19,3.67.27,7.43-.24,11,.54a38.35,38.35,0,0,1,5.38,1.48,25.16,25.16,0,0,1,5.27,2.48l-.07.59a26.27,26.27,0,0,1-5.68,1.22,40.08,40.08,0,0,1-5.57.21c-3.69-.06-7.23-1.4-10.86-2-1.81-.36-3.62-.68-5.43-1.07L48,68.6a12.33,12.33,0,0,0-1.24-.2,18,18,0,0,0-2.52-.13,6.89,6.89,0,0,0-1.16.12,4.61,4.61,0,0,0-.5.12,2.46,2.46,0,0,0-.47.21l-2.41,1.36c-1.61.9-3.23,1.78-4.86,2.66Z"/><path class="cls-1" d="M136.16,69.3c-1.7-.7-3.4-1.41-5.08-2.14l-2.53-1.1a1.58,1.58,0,0,0-.46-.15,3.61,3.61,0,0,0-.5-.06,7.53,7.53,0,0,0-1.16,0,16,16,0,0,0-2.46.34,25.48,25.48,0,0,0-2.47.71l-5.26,1.59c-1.75.53-3.49,1.16-5.22,1.76a27.31,27.31,0,0,1-5.35,1.23,42.26,42.26,0,0,1-5.54.36,27.81,27.81,0,0,1-5.74-.55l-.13-.58a27.51,27.51,0,0,1,4.95-3,42.66,42.66,0,0,1,5.16-2.06,27.12,27.12,0,0,1,5.36-1.17c1.82-.21,3.66-.38,5.47-.66l5.44-.82a28.58,28.58,0,0,1,2.92-.29,20.13,20.13,0,0,1,3,.12,11.83,11.83,0,0,1,1.57.32,7.45,7.45,0,0,1,.82.3,4,4,0,0,1,.77.44L132,65.54q2.25,1.6,4.47,3.24Z"/><path class="cls-4" d="M80.29,105.57a4.4,4.4,0,0,1,1.11-1.67,1.47,1.47,0,0,1,1-.42,1.51,1.51,0,0,1,1,.51,4.53,4.53,0,0,1,1,1.75V106a20.68,20.68,0,0,1-2.08,0,20.44,20.44,0,0,1-2.07-.21Z"/><path class="cls-4" d="M87.05,105.74A4.51,4.51,0,0,1,88,104a1.5,1.5,0,0,1,1-.5,1.52,1.52,0,0,1,1.06.42,4.61,4.61,0,0,1,1.11,1.67v.25a17.35,17.35,0,0,1-4.16.17Z"/><path class="cls-5" d="M69.07,122.65a50,50,0,0,1,8.83,0l2.09.13,2.16.16c1.43.12,2.84.26,4.18.33a36,36,0,0,0,4,0c1.38-.08,2.82-.19,4.27-.25.37,0,.69,0,1.13,0l1.15.06c.74.07,1.48.16,2.21.28a23.71,23.71,0,0,1,4.41,1.1,39.94,39.94,0,0,1-8.44,2.46c-1.43.28-2.87.53-4.37.7a24.08,24.08,0,0,1-4.66.12,41.16,41.16,0,0,1-4.45-.6c-.72-.14-1.44-.27-2.15-.42l-1.07-.23c-.16,0-.38-.1-.59-.15l-.55-.16A40,40,0,0,1,69.07,122.65Z"/><path class="cls-3" d="M114.78,79.11a7.63,7.63,0,1,1-6.28.16"/><path class="cls-6" d="M32.61,86.44A222.45,222.45,0,0,1,27,64.74c-.77-3.62-1.5-7.25-2.14-10.88l-.95-5.45-.22-1.36A8.92,8.92,0,0,1,23.61,46c0-.41,0-.88,0-1.21a27.77,27.77,0,0,1,.23-4.23,41.42,41.42,0,0,1,4.71-14,56,56,0,0,1,7.85-11.18,53.88,53.88,0,0,1,5-4.89c.9-.78,1.87-1.54,2.87-2.29L45,7.61c.27-.19.48-.34.94-.63.81-.49,1.64-1,2.51-1.38A27.4,27.4,0,0,1,56.89,3c.49-.07,1-.13,1.49-.16l.75-.06.66,0c1.8-.15,3.6-.27,5.4-.37a312.45,312.45,0,0,1,43.16.41c.9.06,1.8.14,2.7.23l.33,0h.3l.43,0c.57,0,1.13.09,1.69.16a27.57,27.57,0,0,1,3.28.65A24.41,24.41,0,0,1,120.17,5c.29.12.38.17.54.25l.45.21.89.44c1.16.61,2.29,1.23,3.35,1.91a47.9,47.9,0,0,1,10.91,9.44,46.68,46.68,0,0,1,7.55,11.9A33.68,33.68,0,0,1,146.92,44l.07,1.32c-.61,3-1.26,6-1.94,8.95s-1.38,6-2.18,8.94l-1.17,4.47-1.27,4.47c-.9,3-1.78,6-2.86,8.92-.93-3-1.65-6-2.39-9.06l-1-4.53-.94-4.52c-.64-3-1.13-6-1.71-9s-1-6-1.46-9l.06,1.32a28.62,28.62,0,0,0-4.83-5.08,41.25,41.25,0,0,0-6.46-4.43,31.85,31.85,0,0,0-6.75-2.85c-.53-.16-1-.28-1.53-.38l-.36-.07-.18,0s-.17,0-.09,0a3.09,3.09,0,0,0,.51.29,4.32,4.32,0,0,0,.61.23l.35.08.08,0h0l-.34,0c-.9.09-1.8.18-2.7.24a312.44,312.44,0,0,1-43.16.51c-1.8-.1-3.59-.21-5.39-.36h0l.07,0,.15-.07a1,1,0,0,0,.26-.15,1.44,1.44,0,0,0,.37-.37,1.07,1.07,0,0,0,.09-.19c.07-.07-.1,0-.22.06l-.38.14c-.51.21-1,.43-1.6.71-1.09.54-2.26,1.17-3.4,1.88a56.75,56.75,0,0,0-6.63,4.76,43.62,43.62,0,0,0-5.15,5.07l-.87,1a.31.31,0,0,1-.18.13c-.06,0-.14,0-.17.28l-.25,1.34-1,5.34c-.7,3.56-1.49,7.13-2.32,10.69C36.88,72.11,35.06,79.26,32.61,86.44Z"/></g></svg>