<?xml version="1.0" encoding="utf-8"?>
<!-- Generator: Adobe Illustrator 23.0.1, SVG Export Plug-In . SVG Version: 6.00 Build 0)  -->
<svg version="1.1" id="Layer_1" xmlns="http://www.w3.org/2000/svg" xmlns:xlink="http://www.w3.org/1999/xlink" x="0px" y="0px"
	 viewBox="0 0 144.1 97.8" style="enable-background:new 0 0 144.1 97.8;" xml:space="preserve">
<style type="text/css">
	.st0{fill:none;stroke:#000000;stroke-width:0.6625;stroke-miterlimit:10;}
	.st1{fill:none;stroke:#000000;stroke-miterlimit:10;}
</style>
<g>
	<g>
		<g>
			<path d="M26.7,60.7"/>
			<line x1="28.2" y1="60.7" x2="25.1" y2="60.7"/>
			<line x1="28.7" y1="60.7" x2="24.7" y2="60.7"/>
			<line x1="28.2" y1="60.7" x2="25.1" y2="60.7"/>
			<line x1="28.7" y1="60.7" x2="24.7" y2="60.7"/>
			<line class="st0" x1="26.7" y1="40.1" x2="26.7" y2="54.4"/>
			<path d="M26.6,40.5c1.4-0.5,2.9,0.4,4.3,1c2,0.8,4.1,0.9,6.3,0.7c-0.9,0.7-2.1,1.1-3.2,1.1c1.1,0.3,2.2,0.4,3.3,0.3
				c-1.5,0.6-3.1,1.1-4.6,0.8c-1-0.2-2-0.7-3-1.1c-1-0.4-2.1-0.7-3.1-0.3"/>
			<path d="M38.6,89H14.8l2.7-29.2h18.4L38.6,89z M30,73.1c0-4-1.6-7.2-3.5-7.2s-3.5,3.2-3.5,7.2H30z"/>
			<path d="M28.7,63.5c0-3.4-0.9-6.2-2-6.2s-2,2.8-2,6.2h-3.1c0-3.4-0.9-6.2-2-6.2c-1.1,0-2,2.8-2,6.2l0,0h-2V51.1h22.2v12.3h-2v0
				c0-3.4-0.9-6.2-2-6.2s-2,2.8-2,6.2H28.7z"/>
			<rect x="15.6" y="48" width="3" height="4.7"/>
			<rect x="34.8" y="48" width="3" height="4.7"/>
			<rect x="30" y="48" width="3" height="4.7"/>
			<rect x="20.4" y="48" width="3" height="4.7"/>
			<rect x="25.2" y="48" width="3" height="4.7"/>
		</g>
		<g>
			<path d="M121.6,60.7"/>
			<line x1="123.1" y1="60.7" x2="120" y2="60.7"/>
			<line x1="123.6" y1="60.7" x2="119.6" y2="60.7"/>
			<line x1="123.1" y1="60.7" x2="120" y2="60.7"/>
			<line x1="123.6" y1="60.7" x2="119.6" y2="60.7"/>
			<line class="st0" x1="121.6" y1="40.1" x2="121.6" y2="54.4"/>
			<path d="M121.5,40.5c1.4-0.5,2.9,0.4,4.3,1c2,0.8,4.1,0.9,6.3,0.7c-0.9,0.7-2.1,1.1-3.2,1.1c1.1,0.3,2.2,0.4,3.3,0.3
				c-1.5,0.6-3.1,1.1-4.6,0.8c-1-0.2-2-0.7-3-1.1s-2.1-0.7-3.1-0.3"/>
			<path d="M133.5,89h-23.8l2.7-29.2h18.4L133.5,89z M124.9,73.1c0-4-1.6-7.2-3.5-7.2s-3.5,3.2-3.5,7.2H124.9z"/>
			<path d="M123.6,63.5c0-3.4-0.9-6.2-2-6.2s-2,2.8-2,6.2h-3.1c0-3.4-0.9-6.2-2-6.2c-1.1,0-2,2.8-2,6.2v0h-2V51.1h22.2v12.3h-2v0
				c0-3.4-0.9-6.2-2-6.2c-1.1,0-2,2.8-2,6.2H123.6z"/>
			<rect x="110.5" y="48" width="3" height="4.7"/>
			<rect x="129.7" y="48" width="3" height="4.7"/>
			<rect x="124.9" y="48" width="3" height="4.7"/>
			<rect x="115.3" y="48" width="3" height="4.7"/>
			<rect x="120.1" y="48" width="3" height="4.7"/>
		</g>
		<g>
			<line class="st1" x1="75" y1="0" x2="75" y2="31.5"/>
			<g>
				<polygon points="46.6,38.2 46.8,38.2 101.7,38.2 107.6,31.3 107.6,24.7 40.7,24.7 40.7,31.3 				"/>
				<rect x="40.7" y="19.2" width="5.9" height="8.6"/>
				<rect x="101.7" y="19.2" width="5.9" height="8.6"/>
				<rect x="91.5" y="19.2" width="5.9" height="8.6"/>
				<rect x="50.8" y="19.2" width="5.9" height="8.6"/>
				<rect x="61" y="19.2" width="5.9" height="8.6"/>
				<rect x="71.2" y="19.2" width="5.9" height="8.6"/>
				<rect x="81.3" y="19.2" width="5.9" height="8.6"/>
			</g>
			<path d="M74.8,0.8c2.2-0.4,4.4,0.1,6.5,0.8c2.1,0.7,4.1,1.6,6.3,2C89.4,4,92,3.4,93.8,3.4C92.4,4.8,89,6,89,6s2.4,0.9,5,1.5
				c-2,0.8-5,1-7.1,0.6c-3.8-0.6-7.8-3.3-11.7-2.5"/>
			<path d="M40.2,89L46,35.9h56l6,53.1H40.2z M82.8,88.8c0-12.7-3.9-22.9-8.6-22.9c-4.8,0-8.6,10.3-8.6,22.9H82.8z M76.6,36.2h-4.7
				v4.7h4.7V36.2z M69.2,36.2h-4.7v4.7h4.7V36.2z M61.7,36.2H57v4.7h4.7V36.2z M84.1,36.2h-4.7v4.7h4.7V36.2z M99,36.2h-4.7v4.7H99
				V36.2z M91.5,36.2h-4.7v4.7h4.7V36.2z M54.5,36.2h-4.7v4.7h4.7V36.2z"/>
		</g>
	</g>
	<path d="M0.5,97.8c0-6.2,5-11.2,11.2-11.2c0.8,0,1.5,0.1,2.3,0.2l-1.8,0.3c0.1-0.2,0.2-0.4,0.4-0.6c2.5-3.8,7.1-6.4,12.2-6.4
		c6,0,11.1,3.4,13.3,8.3l-1.3,1.9c4-6.1,11.3-10.2,19.7-10.2c5.6,0,10.7,1.8,14.6,4.8l-1.5-0.8C74,75.5,83.7,69.5,95,69.5
		c12.9,0,23.8,7.8,27.3,18.6l-4,1.3c0.4-0.5,0.8-1,1.3-1.4c2.5-2.5,6-4.1,9.9-4.1c7.7,0,13.9,6.2,13.9,13.9H0.5z"/>
</g>
</svg>
