<svg xmlns="http://www.w3.org/2000/svg" viewBox="0 0 174 182.1"><defs><style>.cls-1{fill:#fff;stroke:#f2e4d0;stroke-miterlimit:10;stroke-width:1.25px;}.cls-2{fill:#4761a0;}.cls-3{fill:#31333a;}.cls-4{fill:#d8bf9e;}.cls-5{fill:#993f40;}.cls-6{fill:#25262b;}.cls-7{fill:#f2e4d0;}</style></defs><title>characters</title><g id="Layer_9" data-name="Layer 9"><path class="cls-1" d="M44.92,34.53c-6,5.48-7.05,25.7-6.46,42,.13,3.6-9-11.58-9-3.45,0,20.46,10,20.34,11.43,28.47.81,4.59,5.06,16.79,6.49,19.5,8.55,16.24,32.4,29.16,39.75,29.16,6.77,0,30.84-13.86,40-33.06,3.52-7.35,6.06-23.75,6.06-23.75S143.38,75.83,142,71.62s-8.38,2.93-8.38,2.93L134,55.87a22.44,22.44,0,0,0-.37-4.63,33.29,33.29,0,0,0-23.78-26C93.73,20.53,67.41,13.9,44.92,34.53Z"/><path class="cls-2" d="M58,93.75a6.54,6.54,0,0,1,.74-11.36l5.39-.14A6.55,6.55,0,0,1,66.21,92.9Z"/><path class="cls-3" d="M46.76,74.05c1-.91,2-1.82,2.94-2.71L51.18,70l.18-.17.26-.2a3.5,3.5,0,0,1,.56-.32,7.12,7.12,0,0,1,1.1-.37,11.57,11.57,0,0,1,2.16-.26,10.19,10.19,0,0,1,1.1,0l1,0c1.33.07,2.65.18,4,.27,2.64.27,5.35,0,7.95.64a30.24,30.24,0,0,1,3.87,1.1,20.11,20.11,0,0,1,3.78,1.76l-.06.38a19.27,19.27,0,0,1-4.11.64,29.8,29.8,0,0,1-4,0c-2.66-.15-5.2-1.11-7.81-1.58-1.3-.28-2.61-.54-3.9-.84l-1-.22a7.5,7.5,0,0,0-.89-.15,11,11,0,0,0-1.8-.07,4,4,0,0,0-.82.12l-.34.11-.15.08-.21.13L50.36,72.2c-1.11.73-2.24,1.45-3.36,2.16Z"/><path class="cls-3" d="M125,73.72c-1.18-.75-2.34-1.52-3.5-2.3l-1.73-1.17a3.82,3.82,0,0,0-.4-.25,1.27,1.27,0,0,0-.33-.12,4.12,4.12,0,0,0-.83-.13,9.16,9.16,0,0,0-1.88.07,12.28,12.28,0,0,0-1.89.4l-4,1c-1.35.34-2.69.75-4,1.13a26.08,26.08,0,0,1-4.1.81,39,39,0,0,1-4.2.24,23.45,23.45,0,0,1-4.31-.33l-.07-.36a22.74,22.74,0,0,1,3.88-1.89,36.75,36.75,0,0,1,4-1.33,26,26,0,0,1,4.1-.77c1.39-.13,2.79-.25,4.17-.43l4.14-.54a15,15,0,0,1,2.25-.14,11.27,11.27,0,0,1,2.29.27,5.79,5.79,0,0,1,1.17.4,2.89,2.89,0,0,1,.59.37c.22.17.28.25.43.38l1.52,1.45c1,1,2,1.94,3,2.92Z"/><path class="cls-4" d="M80.44,107.55A4.34,4.34,0,0,1,81.5,106a1.46,1.46,0,0,1,1-.4,1.44,1.44,0,0,1,1,.49,4.26,4.26,0,0,1,.93,1.67V108a18.94,18.94,0,0,1-2,0c-.67-.07-1.33-.07-2-.2Z"/><path class="cls-4" d="M86.91,107.72a4.24,4.24,0,0,1,.93-1.68,1.43,1.43,0,0,1,1-.48,1.44,1.44,0,0,1,1,.4,4.43,4.43,0,0,1,1.06,1.59v.25c-.66.13-1.32.13-2,.2a19.07,19.07,0,0,1-2,0Z"/><path class="cls-5" d="M70.68,121.94a45.71,45.71,0,0,1,7.52.2l1.79.13,1.84.15c1.22.11,2.43.23,3.58.3a30.78,30.78,0,0,0,3.46,0l3.65-.23a12.57,12.57,0,0,1,1.94,0c.64,0,1.27.11,1.89.2a22.19,22.19,0,0,1,3.77.84,38.46,38.46,0,0,1-7.23,2c-1.23.23-2.45.44-3.73.58a20.09,20.09,0,0,1-4,.1,34.82,34.82,0,0,1-3.8-.51c-.62-.11-1.23-.22-1.84-.35l-.91-.19-.5-.12-.47-.14A36.68,36.68,0,0,1,70.68,121.94Z"/><path class="cls-2" d="M103.81,93.36a6.54,6.54,0,0,1,1.28-11l5.39-.14a6.54,6.54,0,0,1,1,11.5"/><path class="cls-6" d="M34.84,89.26a212,212,0,0,1-5.39-21c-.74-3.49-1.45-7-2.06-10.5-.33-1.75-.61-3.51-.91-5.26l-.11-.66-.05-.33,0-.16a2,2,0,0,1,0-.28l-.06-1.22,0-1.08a25,25,0,0,1,.31-4,40.14,40.14,0,0,1,4.71-13.38,54,54,0,0,1,7.71-10.69A51.06,51.06,0,0,1,43.84,16c.91-.74,1.84-1.47,2.86-2.19l.38-.26.1-.07.29-.17.61-.34,1.3-.67,1.56-.79c1.91-1,3.72-1.75,5.58-2.52S60.24,7.58,62.15,7A75,75,0,0,1,87,2.8c1.15,0,2.31,0,3.42.15s2.24.19,3.32.35S96,3.58,97,3.79s2.12.41,3.15.65A74.67,74.67,0,0,1,112,8.2c1.91.75,3.75,1.63,5.63,2.55.46.24.94.47,1.38.71l.15.09-.23-.08c-.28-.09.06.06.16.11L120,12c1.14.57,2.23,1.17,3.28,1.81a46,46,0,0,1,10.61,9.06,44.88,44.88,0,0,1,7.33,11.46,32.24,32.24,0,0,1,3,14.29l.06,1.26q-.87,4.29-1.85,8.56c-.7,2.85-1.33,5.71-2.09,8.56l-1.12,4.27L138,75.54c-.86,2.85-1.7,5.7-2.74,8.54-.88-2.89-1.57-5.78-2.29-8.67l-1-4.33-.89-4.33c-.62-2.88-1.09-5.76-1.64-8.65s-1-5.76-1.4-8.64l.06,1.26a27.49,27.49,0,0,0-4.68-4.9,40,40,0,0,0-6.25-4.26,30.54,30.54,0,0,0-6.5-2.71c-.5-.14-1-.26-1.46-.35l-.35,0a2.09,2.09,0,0,1-.45-.14l-.52-.2-.15,0-1-.29c-1.34-.38-2.76-.71-4.15-1a71.43,71.43,0,0,0-15.83-2.05,82.73,82.73,0,0,0-16.17,2.06c-2.85.61-5.85,1.35-8.52,2.08l-.45.12-.38.1-.13,0H61l.31-.17.33-.19.14-.1,0,0-.18.07a15.27,15.27,0,0,0-1.51.63c-1,.51-2.17,1.08-3.27,1.75a54.48,54.48,0,0,0-6.43,4.55,42.75,42.75,0,0,0-5.06,4.91l-.87,1a1.46,1.46,0,0,1-.2.22l-.17.07s0,0,0,0l0,.16-.06.32-.12.65c-.33,1.72-.64,3.43-1,5.15-.67,3.44-1.44,6.88-2.23,10.33C39,75.43,37.21,82.34,34.84,89.26Z"/><path class="cls-3" d="M37.75,178.42a57.69,57.69,0,0,1-6-12,82.11,82.11,0,0,1-3.53-12,97.93,97.93,0,0,1-1.8-12.07,43,43,0,0,1,.39-12.14c1.46-8.13,5.47-16.33,6-24.43a50.16,50.16,0,0,0-.53-12.11,76.94,76.94,0,0,0-3.1-12c-1.32-4-2.72-8-3.71-12a115.19,115.19,0,0,1-2.17-12.06A23.16,23.16,0,0,1,23,52.85a27.1,27.1,0,0,1,.79-5.58,27.48,27.48,0,0,1,5-10.21,26.9,26.9,0,0,1,8.79-7.32,24.48,24.48,0,0,1,2.6-1.2l1.5-.59c1-.33,1.9-.69,2.87-1a131.58,131.58,0,0,1,23.93-5.29,118.28,118.28,0,0,1,12.61-1,78.18,78.18,0,0,1,13.26.71l.93,2.43a77.78,77.78,0,0,1-9.37,9.4,119.6,119.6,0,0,1-10,7.71A131.34,131.34,0,0,1,54.56,53c-.92.42-1.86.78-2.79,1.17l-1.32.51c0,.05-.12,0-.16.05s-.43,0-.67.12a2.33,2.33,0,0,0-.88.31c-.08,0-.13.1-.23.15s-.16.11-.21.19a1.37,1.37,0,0,0-.19.23c-.08-.09-.12.66-.17,1.12A112.39,112.39,0,0,1,46.45,69c-.75,4.07-1.92,8.14-3,12.22A76.63,76.63,0,0,0,41,93.43a51.26,51.26,0,0,0,.16,12.13c1,8,5.48,16,7.39,24a43,43,0,0,1,1.08,12.1,96.25,96.25,0,0,1-1.11,12.15,82.18,82.18,0,0,1-2.84,12.21,57,57,0,0,1-5.34,12.28Z"/><path class="cls-3" d="M131.35,177.82A57.53,57.53,0,0,1,126,165.54a83.15,83.15,0,0,1-2.84-12.21,98.14,98.14,0,0,1-1.11-12.15,43,43,0,0,1,1.08-12.1c1.92-8,6.39-16,7.39-24a50.22,50.22,0,0,0,.16-12.13,76.63,76.63,0,0,0-2.42-12.19c-1.08-4.08-2.26-8.15-3-12.21a112.88,112.88,0,0,1-1.49-12.17c-.05-.46-.08-1.21-.16-1.11a1.16,1.16,0,0,0-.2-.24c0-.08-.16-.13-.21-.19s-.14-.11-.23-.15a2.29,2.29,0,0,0-.87-.31c-.25-.06-.48-.05-.68-.11,0,0-.11,0-.15-.06l-1.32-.51c-.94-.39-1.88-.75-2.8-1.17A131.76,131.76,0,0,1,95.81,40.4a117.86,117.86,0,0,1-10-7.71,78.57,78.57,0,0,1-9.38-9.4l.94-2.43a78,78,0,0,1,13.25-.7,115.35,115.35,0,0,1,12.61,1,130.87,130.87,0,0,1,23.94,5.3c1,.3,1.91.66,2.86,1l1.5.58a24.64,24.64,0,0,1,2.61,1.2,27.13,27.13,0,0,1,8.79,7.32,27.46,27.46,0,0,1,5,10.21,25.8,25.8,0,0,1,.79,5.58,23.33,23.33,0,0,1-.24,4.71,112.69,112.69,0,0,1-2.18,12.06c-1,4-2.38,8-3.7,12a77,77,0,0,0-3.11,12,50.22,50.22,0,0,0-.53,12.12c.54,8.1,4.55,16.29,6,24.42a43,43,0,0,1,.39,12.14,96.07,96.07,0,0,1-1.8,12.07,82.11,82.11,0,0,1-3.53,12,57.14,57.14,0,0,1-6,12Z"/><path class="cls-7" d="M96.44,105.72a3.15,3.15,0,0,0,1,2.07c.49.61,1,1.21,1.56,1.77a23.31,23.31,0,0,0,3.58,3,24.92,24.92,0,0,0,8.65,3.66,16.13,16.13,0,0,1-9.19-2.86,17.41,17.41,0,0,1-3.6-3.31,15.3,15.3,0,0,1-1.39-2A3.08,3.08,0,0,1,96.44,105.72Z"/><path class="cls-7" d="M75.82,106.81a10.43,10.43,0,0,1-1.8,4.45,15.09,15.09,0,0,1-3.36,3.5,15.5,15.5,0,0,1-4.28,2.29,11.22,11.22,0,0,1-4.76.6,17.07,17.07,0,0,0,4.49-1.3,20.85,20.85,0,0,0,4-2.35,20.16,20.16,0,0,0,3.34-3.19A14.93,14.93,0,0,0,75.82,106.81Z"/></g></svg>