<svg xmlns="http://www.w3.org/2000/svg" viewBox="0 0 174 182.1"><defs><style>.cls-1{fill:#fff;stroke:#f2e4d0;stroke-miterlimit:10;stroke-width:1.07px;}.cls-2{fill:#4761a0;}.cls-3{fill:#e5caaa;}.cls-4{fill:#d8bf9e;}.cls-5{fill:#f2e4d0;}.cls-6{fill:#993f40;}</style></defs><title>characters</title><g id="Layer_5" data-name="Layer 5"><path class="cls-1" d="M111.87,38.11S78,30.65,64.7,37.41L48.65,45.56a14.7,14.7,0,0,0-8.06,14.79L45.91,106a14.51,14.51,0,0,0,2.76,7c9.56,12.94,28.76,28.63,39.05,28.63,9.58.07,27.14-14.26,37.57-28.62a14.58,14.58,0,0,0,2.71-7l2.72-24.6C132.38,66.32,132.66,44.59,111.87,38.11Z"/><path class="cls-2" d="M72,73.49a5.4,5.4,0,0,1,1.19,7.78l-8.47.1a5.43,5.43,0,0,1,0-6.91"/><path class="cls-3" d="M37.49,180.73a40.65,40.65,0,0,1-7-9.41,47.2,47.2,0,0,1-3.94-9.42,49.56,49.56,0,0,1-1.8-9.41,21.39,21.39,0,0,1,.91-9.42c1-3.13,2.9-6.27,4.58-9.41a31.12,31.12,0,0,0,3.72-9.41,24.9,24.9,0,0,0-.23-9.42,42,42,0,0,0-3.42-9.41A94.41,94.41,0,0,1,26.09,96a39.46,39.46,0,0,1-1.34-4.7l-.92-4.71c-.61-3.14-1.24-6.28-1.68-9.42a45.59,45.59,0,0,1-.32-9.41,68.27,68.27,0,0,1,4.49-18.83,70.43,70.43,0,0,1,4.48-9.41,53.59,53.59,0,0,1,6.69-9.42h3.24a54.11,54.11,0,0,1,6.69,9.42,71.68,71.68,0,0,1,4.48,9.41,69,69,0,0,1,4.49,18.83,44.9,44.9,0,0,1-.33,9.41c-.43,3.14-1.06,6.28-1.67,9.42l-.92,4.71A39.46,39.46,0,0,1,52.13,96,96.77,96.77,0,0,1,48,105.42a42,42,0,0,0-3.42,9.41,24.9,24.9,0,0,0-.23,9.42A31.12,31.12,0,0,0,48,133.66c1.67,3.14,3.57,6.28,4.58,9.41a21.39,21.39,0,0,1,.91,9.42,49.56,49.56,0,0,1-1.8,9.41,46.68,46.68,0,0,1-3.95,9.42,40.3,40.3,0,0,1-7,9.41Z"/><path class="cls-3" d="M131.5,179.65a38.94,38.94,0,0,1-7-9,44.16,44.16,0,0,1-4-9,45.52,45.52,0,0,1-1.8-9,22.47,22.47,0,0,1-.08-4.49,18.6,18.6,0,0,1,1-4.49c1-3,2.9-6,4.58-9a28.69,28.69,0,0,0,3.71-9,18.31,18.31,0,0,0,.34-4.48,25.4,25.4,0,0,0-.56-4.49,38.75,38.75,0,0,0-3.43-9,90,90,0,0,1-4.16-9,33.24,33.24,0,0,1-1.34-4.49l-.92-4.49c-.61-3-1.26-6-1.68-9a41.47,41.47,0,0,1-.33-9,53.94,53.94,0,0,1,1.55-9,68.38,68.38,0,0,1,7.42-18,52.14,52.14,0,0,1,6.7-9h3.23a52.14,52.14,0,0,1,6.7,9,68.38,68.38,0,0,1,7.42,18,53.94,53.94,0,0,1,1.55,9,41.47,41.47,0,0,1-.33,9c-.42,3-1.07,6-1.68,9l-.92,4.49a33.24,33.24,0,0,1-1.34,4.49,90,90,0,0,1-4.16,9,38.26,38.26,0,0,0-3.42,9,24.52,24.52,0,0,0-.57,4.49,18.81,18.81,0,0,0,.34,4.48,28.48,28.48,0,0,0,3.72,9c1.67,3,3.56,6,4.57,9a18.6,18.6,0,0,1,1,4.49,22.47,22.47,0,0,1-.08,4.49,45.52,45.52,0,0,1-1.8,9,44.16,44.16,0,0,1-3.95,9,38.94,38.94,0,0,1-7.05,9Z"/><path class="cls-3" d="M23.52,58.71a43.18,43.18,0,0,1,2-12.83A54.23,54.23,0,0,1,30.16,35,58.34,58.34,0,0,1,44.54,18.08C55.94,8.84,70.7,4,85.68,3.92a67.76,67.76,0,0,1,22.09,3.59,62.4,62.4,0,0,1,19.49,10.65c1.44,1.16,2.81,2.45,4.16,3.69A46.26,46.26,0,0,1,135.2,26c.6.7,1.18,1.43,1.75,2.17a26.8,26.8,0,0,1,1.66,2.26q1.56,2.37,2.94,4.86A52.6,52.6,0,0,1,148,58.63l-2.3,3.27-3.52-2c-1.17-.65-2.29-1.39-3.49-2l-3.57-1.83-1.78-.91-1.83-.8-3.62-1.66c-1.21-.53-2.46-1-3.69-1.46-2.44-1-5-1.82-7.45-2.66a104,104,0,0,0-15.32-3.55,91.65,91.65,0,0,0-15.61-1.16,101.25,101.25,0,0,0-15.63,1.25,110.56,110.56,0,0,0-15.36,3.55A121.41,121.41,0,0,0,40,54.35c-2.44,1.06-4.83,2.23-7.17,3.48-1.18.63-2.34,1.29-3.48,2s-2.32,1.36-3.35,2Z"/><path class="cls-4" d="M88.37,44.78a17.8,17.8,0,0,1-4.51,2.74,18.19,18.19,0,0,1-4.23,1.21,17.69,17.69,0,0,1-4,.17,7.49,7.49,0,0,1-3.77-1.18c-2.38-1.52-4.48-4.56-7-5.52s-5.2-.7-8.06.34a36.88,36.88,0,0,1-4.25,1.32,21.1,21.1,0,0,1-4.07.4,24,24,0,0,1-7.91-.47,24.65,24.65,0,0,1-7.3-3.66,27,27,0,0,1-3.46-2.92,24.36,24.36,0,0,1-3.24-4l.3-1.59A23.4,23.4,0,0,1,31.36,29a27.39,27.39,0,0,1,4.27-1.47,24.66,24.66,0,0,1,8.14-.76,23.51,23.51,0,0,1,7.54,2.43A21.17,21.17,0,0,1,55,31.08a37.88,37.88,0,0,1,3.48,2.76c2.29,2,4.71,3.32,7.39,3.25s5.71-2.08,8.48-2.63a7.42,7.42,0,0,1,4,.27,18.1,18.1,0,0,1,10.41,8.46Z"/><path class="cls-4" d="M87.65,43.19a16.89,16.89,0,0,1,2.9-4.13,16,16,0,0,1,3.19-2.6,14.65,14.65,0,0,1,3.38-1.55,6.4,6.4,0,0,1,3.64-.22c2.56.6,5.4,2.71,7.86,2.75s4.69-1.16,6.77-3.13a34,34,0,0,1,3.16-2.71,19,19,0,0,1,3.35-1.78,20.36,20.36,0,0,1,6.91-2.31,21.29,21.29,0,0,1,7.52.88,24.16,24.16,0,0,1,4,1.53,22.89,22.89,0,0,1,4.17,2.62l.3,1.59a23.15,23.15,0,0,1-2.94,4A25,25,0,0,1,138.68,41,21.18,21.18,0,0,1,132,44.49a20.19,20.19,0,0,1-7.29.35,19,19,0,0,1-3.76-.45A34.85,34.85,0,0,1,117,43c-2.66-1.08-5.18-1.46-7.44-.46s-4.16,3.92-6.34,5.41a6.36,6.36,0,0,1-3.46,1.11,14.71,14.71,0,0,1-3.72-.22,16.18,16.18,0,0,1-3.91-1.27,16.74,16.74,0,0,1-4.2-2.8Z"/><path class="cls-4" d="M49.84,65.48c1.17-.84,2.33-1.67,3.51-2.47.61-.41,1.14-.8,1.81-1.23A6,6,0,0,1,57.54,61a6.13,6.13,0,0,1,2.58.27l1,.35,1,.31c1.34.41,2.68.81,4,1.16,2.7.77,5.53,1,8.11,1.85l3.87,1.25c.63.19,1.27.41,1.91.55a5.72,5.72,0,0,0,2,.21l.25.35a4.18,4.18,0,0,1-2,1.44,11.1,11.1,0,0,1-2.34.53,18.23,18.23,0,0,1-4.56-.09c-3-.36-5.6-1.81-8.28-2.88-1.34-.57-2.66-1.15-4-1.79l-1-.5-.92-.5a4.34,4.34,0,0,0-1.6-.45,4,4,0,0,0-1.71.25c-.59.24-1.29.57-1.93.85-1.3.59-2.61,1.16-3.92,1.72Z"/><path class="cls-4" d="M121.73,65.85c-1.23-.53-2.47-1.06-3.69-1.61l-1.83-.83a4.41,4.41,0,0,0-1.62-.39,4.3,4.3,0,0,0-1.56.26,4.76,4.76,0,0,0-.73.35c-.33.16-.7.35-1,.47-1.31.58-2.6,1-3.89,1.4-2.61.74-5.1,2-7.79,2.24a22.55,22.55,0,0,1-8.26-.43l-.08-.42a24.73,24.73,0,0,1,7.48-3.45c2.55-.76,5.28-.65,7.87-1.16,1.3-.21,2.61-.44,3.83-.7.33-.06.57-.15.86-.22a8.29,8.29,0,0,1,1.15-.32A5.88,5.88,0,0,1,117,62l1.65,1.14c1.11.75,2.2,1.53,3.29,2.32Z"/><path class="cls-5" d="M60,81.33a34.41,34.41,0,0,1,7.92-.4,20.33,20.33,0,0,1,7.7,1.89c-2.63-.37-5.18-.65-7.78-.81S62.6,81.73,60,81.33Z"/><path class="cls-2" d="M108.56,74.83a5.41,5.41,0,0,1,0,6.92l-8.47-.1a5.43,5.43,0,0,1,1.19-7.79"/><path class="cls-5" d="M114.06,81.65c-2.64.38-5.25.44-7.85.61s-5.15.41-7.78.77a20.19,20.19,0,0,1,7.72-1.84A33.83,33.83,0,0,1,114.06,81.65Z"/><path class="cls-5" d="M80.23,99.52a5.69,5.69,0,0,1,1.32-2.1,1.74,1.74,0,0,1,1.24-.53,1.77,1.77,0,0,1,1.19.65,5.69,5.69,0,0,1,1.12,2.21l0,.33a9.88,9.88,0,0,1-1.22,0H82.64L81.43,100a8.52,8.52,0,0,1-1.22-.17Z"/><path class="cls-5" d="M88.16,99.75a5.54,5.54,0,0,1,1.12-2.21,1.73,1.73,0,0,1,1.19-.65,1.75,1.75,0,0,1,1.24.54A5.54,5.54,0,0,1,93,99.52l0,.32a8.39,8.39,0,0,1-1.21.17l-1.22.11H89.4a10,10,0,0,1-1.22,0Z"/><path class="cls-6" d="M70,115.71a36.31,36.31,0,0,1,8.62-3.21c.38-.09.74-.18,1.14-.25.2,0,.37-.08.61-.11l.34,0a4.28,4.28,0,0,1,.55,0h1.21c.37,0,.74,0,1.11,0,1.46,0,2.88.14,4.12.16s2.51,0,4,0c.72,0,1.46,0,2.2,0a6,6,0,0,1,.88,0c.22,0,.44,0,.63.09.4.07.77.13,1.15.22a34.64,34.64,0,0,1,8.67,3.1,43.11,43.11,0,0,1-8.94,1.77l-1.06.12c-.18,0-.33,0-.47.06s-.06,0-.23.08c-.73.19-1.45.37-2.19.51a23.22,23.22,0,0,1-2.31.37,19.2,19.2,0,0,1-2.53.09,25.44,25.44,0,0,1-4.67-.69c-.36-.08-.72-.17-1.08-.28l-.54-.14-.27-.08c-.06,0-.25-.06-.17-.06s.09,0,0,0l-.22,0a3.37,3.37,0,0,0-.49-.05l-1.06-.11A45.63,45.63,0,0,1,70,115.71Z"/><polygon class="cls-5" points="89.88 134.41 87.72 142.66 85.57 134.41 89.88 134.41"/></g></svg>