<?xml version="1.0" encoding="utf-8"?>
<!-- Generator: Adobe Illustrator 23.0.1, SVG Export Plug-In . SVG Version: 6.00 Build 0)  -->
<svg version="1.1" id="Layer_1" xmlns="http://www.w3.org/2000/svg" xmlns:xlink="http://www.w3.org/1999/xlink" x="0px" y="0px"
	 viewBox="0 0 454.7 173.7" style="enable-background:new 0 0 454.7 173.7;" xml:space="preserve">
<style type="text/css">
	.st0{fill:none;}
	.st1{fill:none;stroke:#000000;stroke-width:2;stroke-linecap:round;stroke-miterlimit:10;}
	.st2{fill:#7D4E24;}
	.st3{fill:#936037;}
	.st4{fill:none;stroke:#000000;stroke-width:2.1404;stroke-linecap:round;stroke-miterlimit:10;}
	.st5{fill:#36A9E1;}
	.st6{fill:none;stroke:#F2E4D0;stroke-width:0.7031;stroke-linecap:round;stroke-miterlimit:10;}
	.st7{fill:#F2E4D0;}
	.st8{fill:#9B2930;}
	.st9{fill:#B17F4A;}
	.st10{fill:#C6C6C6;}
	.st11{fill:#00A19A;}
	.st12{fill:#CBBBA0;}
</style>
<path class="st0" d="M-67.1,11.7c0.1,0,0.3,0,0.4,0"/>
<g>
	<g>
		<path d="M83.6,77.3c2.1,0.4,4.2,0.8,6.3,1c2.1,0.2,4.2,0.3,6.3,0.3c2.1,0,4.2-0.3,6.3-0.3c2.1,0,4.2-0.1,6.4,0.2
			c0.1,0,0.1,0.1,0.1,0.1c0,0,0,0.1-0.1,0.1c-2,0.9-4.2,1.3-6.3,1.6c-2.2,0.3-4.4,0.1-6.5,0c-2.2-0.2-4.3-0.5-6.4-0.9
			c-2.1-0.5-4.2-1-6.2-1.8c-0.1,0-0.1-0.1-0.1-0.1C83.5,77.3,83.5,77.3,83.6,77.3z"/>
	</g>
	<path d="M91,79.7c0.4,2.4,1.8,4.6,3.7,4.8c1.9,0.2,4.1-2.6,3.5-4.9c-0.3-0.1-0.7-0.3-1-0.4"/>
	<g>
		<path d="M86.7,85.1c1.2-0.7,2.5-1.2,3.8-1.5c1.3-0.3,2.7-0.5,4-0.6c1.4-0.1,2.7,0.1,4.1,0.3c1.3,0.2,2.7,0.6,3.9,1.3
			c-1.4,0.2-2.7,0.2-4,0.3L94.6,85l-3.9,0.1C89.4,85.2,88.1,85.2,86.7,85.1z"/>
	</g>
	<g>
		<path d="M70.7,78.1c-2,0.8-4.1,1.3-6.2,1.8c-2.1,0.4-4.3,0.7-6.4,0.9c-2.2,0.2-4.4,0.4-6.5,0c-2.2-0.3-4.3-0.8-6.3-1.6
			c-0.1,0-0.1-0.1-0.1-0.1c0,0,0-0.1,0.1-0.1c2.2-0.2,4.3-0.2,6.4-0.2c2.1,0,4.2,0.3,6.3,0.3c2.1,0,4.2,0,6.3-0.3
			c2.1-0.2,4.2-0.5,6.3-1c0.1,0,0.1,0,0.1,0.1C70.7,78,70.7,78,70.7,78.1z"/>
	</g>
	<path d="M63.1,80.3c-0.4,2.4-1.8,4.6-3.7,4.8s-4.1-2.6-3.5-4.9c0.3-0.1,0.7-0.3,1-0.4"/>
	<g>
		<path d="M67.4,85.7c-1.4,0.1-2.7,0-4,0l-3.9-0.1l-3.9-0.1c-1.3,0-2.6-0.1-4-0.3c1.2-0.7,2.5-1,3.9-1.3c1.3-0.2,2.7-0.4,4.1-0.3
			c1.4,0,2.7,0.2,4,0.6C65,84.5,66.2,85,67.4,85.7z"/>
	</g>
	<path class="st1" d="M66.7,118.5c6.9-2.4,14.6-2.6,21.6-0.6"/>
	<g>
		<path d="M39,115.4c6.6,4.8,12.5,10.1,18.8,14.2c6.2,4.2,12.7,7,19.2,7c0.4,0,0.8,0.1,1.2,0l1.2-0.1c0.4,0,0.8,0,1.2-0.1l1.2-0.2
			c0.4-0.1,0.8-0.1,1.2-0.2l1.2-0.3l1.2-0.3c0.4-0.2,0.8-0.3,1.2-0.5c3.2-1.2,6.3-3,9.4-5c6.2-4.1,12.1-9.6,18.6-14.4
			c-1.7,3.7-3.7,7.2-5.9,10.7c-2.3,3.4-4.8,6.6-7.9,9.6c-3,3-6.5,5.6-10.6,7.6c-0.5,0.2-1,0.5-1.5,0.7c-0.5,0.2-1.1,0.4-1.6,0.6
			l-1.6,0.6c-0.6,0.2-1.1,0.3-1.7,0.4l-1.7,0.4c-0.6,0.1-1.2,0.1-1.7,0.2l-1.7,0.2c-0.6,0.1-1.2,0-1.8,0c-1.2,0-2.3,0-3.5-0.3
			c-1.2-0.2-2.3-0.3-3.4-0.6l-1.7-0.4c-0.5-0.2-1.1-0.4-1.6-0.6l-1.6-0.6c-0.5-0.2-1-0.5-1.5-0.7c-4-2-7.6-4.6-10.6-7.5
			c-3-2.9-5.7-6.2-8-9.5C42.7,122.6,40.7,119.1,39,115.4z"/>
	</g>
	<g>
		<path d="M54.3,119.2c1.7-4.2,5.2-7.7,9.3-9.9c4.1-2.2,8.8-3.3,13.5-3.4c4.7-0.1,9.4,0.9,13.6,3c4.2,2.1,7.8,5.4,9.7,9.5
			c-3.3-3.1-7-5.2-11-6.6c-4-1.4-8.1-2-12.3-1.9c-4.2,0.1-8.3,0.8-12.2,2.3C61.1,113.6,57.4,115.9,54.3,119.2z"/>
	</g>
	<g>
		<path d="M77.8,124.6c0.6,1.8,1.1,3.5,1.6,5.3l0.6,2.6c0.2,0.9,0.4,1.8,0.5,2.6c0.2,0.9,0.5,1.8,0.7,2.6c0.3,0.9,0.3,1.8,0,2.6
			c-0.2,0.9-0.6,1.8-1.1,2.6c-0.6,0.9-1.2,1.8-2.4,2.6c-0.2,0.2-0.6,0.2-0.8,0c-1.1-0.9-1.8-1.8-2.4-2.6c-0.5-0.9-0.9-1.8-1.1-2.6
			c-0.2-0.9-0.2-1.8,0-2.6c0.3-0.9,0.6-1.8,0.7-2.6c0.2-0.9,0.3-1.8,0.5-2.6l0.6-2.6c0.5-1.8,0.9-3.5,1.6-5.3
			c0.1-0.2,0.3-0.3,0.5-0.3C77.7,124.4,77.8,124.5,77.8,124.6z"/>
	</g>
	<g>
		<path d="M82.5,100.2c-0.3,0.4-0.6,0.6-0.9,0.8c-0.3,0.1-0.6,0.2-0.9,0.2c-0.3,0-0.6-0.1-0.9-0.2c-0.3-0.2-0.6-0.4-0.9-0.8
			c0.3-0.4,0.6-0.6,0.9-0.8c0.3-0.1,0.6-0.2,0.9-0.2c0.3,0,0.6,0.1,0.9,0.2C81.9,99.6,82.2,99.8,82.5,100.2z"/>
	</g>
	<g>
		<path d="M75.5,100.2c-0.3,0.4-0.6,0.6-0.9,0.8c-0.3,0.1-0.6,0.2-0.9,0.2c-0.3,0-0.6-0.1-0.9-0.2c-0.3-0.2-0.6-0.4-0.9-0.8
			c0.3-0.4,0.6-0.6,0.9-0.8c0.3-0.1,0.6-0.2,0.9-0.2c0.3,0,0.6,0.1,0.9,0.2C74.9,99.6,75.2,99.8,75.5,100.2z"/>
	</g>
	<path d="M95.4,51.3c-2.6,2.5-5.7,4-8.8,5.9c-2.1,1.2-4.2,3.5-4,6.1c0.1,2.4,2.5,5.2,5.1,4.1c0.5,2.4-3,3.7-5.4,2.9
		c-6-2-8.2-10.8-3.9-15.4c1.6-1.7,4.1-3.4,3.8-5.7c-4,3.1-9.7,2.8-14.1,5.4c-4.4,2.5-6.9,8-5.9,12.9c-2.7-1.6-4-4.8-4.2-7.9
		c-0.2-3.1,0.7-6.2,1.5-9.2c0,4.8-5.1,9.3-10,9.5c-17.9,0.6-17.9,38-1.6,32.3c0,0-1.8,5.9-9.4,5.8c-8-0.1-0.9,10.4,1.6,15.7
		c11.7,25.1,3,54.2,3,54.2s1.1-23-9.8-24.5c0,0-1,3.1-1.6,4.6c-0.9,2.2-1.4,4.4-0.5,6.7c-1.8-1.9-2.7-4.7-2.7-7.4
		c0-2.1,0.7-4.2,0.7-6.3c-0.1-7.3-7.7-13.6-11.1-19.7c-4.3-7.6-11.9-20.1-3.3-26c-5.5,3.2-9.8,8.4-11.8,14.5
		c-1.8-4.7-0.4-9.9,1.7-14.5c2.3-5.2,5.1-10,5.4-15.7c0.6-10.7-2.3-19.4,2.6-29.7c9.8-20.6,8.3-23.5,5.3-22.1
		c-1.2,0.5,13.4-15.4,24.6-5.9C47.7,26.5,61,6.4,80.7,4.6c-11.2,5,3.6,19.4,10.4,7c2.4-7.9-4.6-12.2-4.6-12.2s12.2,3.8,13.9,15.3
		c-0.6-4.1,5.3-8.1,8.8-8.1c5-0.1,7.1,4.6,7,9c-0.2-1.3-0.7-2.6-1.6-3.6c-1-1.1-2.6-1.7-4-1.2c-1.8,0.6-2.8,2.5-3.1,4.4
		c-0.1,0.7-0.2,1.5,0,2.2c0.5,1.5,2.2,2.2,3.7,2.8c4.3,1.5,8.5,3.7,12,6.8c3.9,3.4,6.2,7.6,8.6,12.1c1.6,2.9,4.1,4.3,6.9,5.7
		c2.2,1,4.3,2.3,6,4.1c1.1,1.2,2.5,3,2.4,4.8c0,0-4.9-4.6-7,0.9c-2.2,5.7,4.9,15.1,5.2,21.1c0.2,5.6-1,11.2-0.1,16.8
		c0.3,2,0.9,3.6,2.8,4.6c1.2,0.6,5.6,0.7,6.5-0.5c-5.1,7.7-12.5,4.7-14.2,2.6c-0.2,5.4-5.5,14.5-7.5,19.4
		c-5.7,13.6-9.1,28.1-10.1,42.8c-1.1-3.2-2.5-6.2-4.2-9.1c-1.9,3.6-5.2,6.4-9,7.9c4.6-7.3-0.2-26.6,1-35.2
		c1.5-10.3,6.1-19.9,7.8-30.3c3.7-23.1-1.7-28.8-1.7-28.8c-2.5,3.8-7.6,3.9-7.6,3.9s5.1-12.9-9.3-25.6c1.5,0.6-2.2,5.1-2.8,5.8
		C96.4,50.3,95.9,50.8,95.4,51.3z"/>
</g>
<g>
	<g>
		<path d="M371.7,122.8c1.7-1.1,3.6-1.8,5.5-2.3c1.9-0.5,3.9-0.8,6-0.9c2-0.1,4,0.1,6,0.5c2,0.4,3.9,1,5.7,2l-5.9-0.3
			c-1.9-0.1-3.8-0.1-5.7,0c-1.9,0.1-3.8,0.2-5.7,0.4C375.6,122.4,373.7,122.6,371.7,122.8z"/>
	</g>
	<g>
		<path class="st2" d="M343.5,105.9c2.1,1.3,4.1,2.6,6,4c1.9,1.4,3.7,2.8,5.5,4.1c3.6,2.8,7,5.4,10.4,7.8c3.4,2.3,6.6,4.4,9.7,5.7
			c3.1,1.3,6,1.9,8.8,2.1c2.7,0,5.5-0.5,8.5-1.9c3.1-1.3,6.3-3.3,9.6-5.7c3.3-2.4,6.7-5.1,10.3-7.9c1.8-1.4,3.6-2.8,5.5-4.2
			c1.9-1.4,3.8-2.8,6-4c-0.4,2.4-1,4.7-1.7,7c-0.7,2.3-1.5,4.5-2.4,6.7c-1.9,4.4-4.2,8.6-7.2,12.6c-3,4-6.7,7.8-11.6,10.8
			c-2.4,1.5-5.1,2.8-8,3.7c-2.9,0.9-6.1,1.3-9.2,1.3c-1.6,0-3.1-0.2-4.6-0.4l-2.3-0.4c-0.7-0.2-1.4-0.4-2.2-0.6
			c-1.5-0.4-2.8-1-4.1-1.6c-1.4-0.6-2.5-1.3-3.8-2.1c-4.8-3-8.5-6.8-11.5-10.7c-3-4-5.4-8.2-7.3-12.6c-0.5-1.1-0.9-2.2-1.3-3.3
			c-0.4-1.1-0.8-2.2-1.2-3.4C344.6,110.7,344,108.4,343.5,105.9z"/>
	</g>
	<g>
		<path class="st2" d="M358.5,123.8c0.3-2.6,1.5-5.1,3-7.3c1.6-2.2,3.6-4.1,5.9-5.6c4.6-3,10-4.5,15.5-4.6
			c5.4-0.1,10.9,1.3,15.6,4.1c2.3,1.4,4.4,3.2,6.1,5.3c1.6,2.1,2.9,4.5,3.3,7.1c-4.6-2.5-8.6-3.9-12.7-4.7
			c-4.1-0.9-8.1-1.2-12.1-1.2c-4,0.1-8,0.5-12.1,1.5C366.9,119.6,362.9,121.1,358.5,123.8z"/>
	</g>
	<g>
		<path class="st0" d="M383.2,149.7"/>
	</g>
	<g>
		<path class="st0" d="M383.2,127.2"/>
	</g>
	<g>
		<path d="M391.1,100.9c-0.5,0.5-1,0.7-1.5,0.9c-0.5,0.2-1,0.2-1.5,0.2c-0.5,0-1-0.1-1.5-0.2c-0.5-0.2-1-0.4-1.5-0.9
			c0.5-0.5,1-0.7,1.5-0.9c0.5-0.2,1-0.2,1.5-0.2c0.5,0,1,0.1,1.5,0.2C390.2,100.2,390.7,100.4,391.1,100.9z"/>
	</g>
	<g>
		<path d="M379.9,100.9c-0.5,0.5-1,0.7-1.5,0.9c-0.5,0.2-1,0.2-1.5,0.2c-0.5,0-1-0.1-1.5-0.2c-0.5-0.2-1-0.4-1.5-0.9
			c0.5-0.5,1-0.7,1.5-0.9c0.5-0.2,1-0.2,1.5-0.2c0.5,0,1,0.1,1.5,0.2C378.9,100.2,379.4,100.4,379.9,100.9z"/>
	</g>
	<path class="st3" d="M388.5,69.4c0,0,10.3-18.3-0.2-22.6c-14.9,3.2-12.6,15.1-11.6,20.5c-11.3-2.8-13.7-16-12.8-19.2
		c-0.5,14.4-8.9,18.4-8.9,18.4c-6.9-26.9-36.3,19.9-3.5,26.3c0,0-2,6.3-10.1,6.2c0,0,5.7,8,1.7,16.8c-6.5,14.4-23,5.2-23,5.2
		c16.6-8.3,13.7-27,4.5-32c7.7-4.4,4.7-31.2-6.8-2.7c-8.5-32,11-41,11-41c-1,0.7-3.9-24.2,13.6-28.7c-5.1,4,7,11.6,19.2,4.8
		c8-4.4,17.4-17.2,25.1-16.3c-12,5.3,3.8,20.8,11.1,7.5c2.6-8.4-4.9-13-4.9-13s13.1,4,14.9,16.4c-0.7-4.4,5.7-8.6,9.4-8.7
		c5.3-0.1,7.6,4.9,7.4,9.6c-0.2-1.4-0.7-2.8-1.7-3.8c-1.1-1.1-2.8-1.8-4.3-1.3c-1.9,0.6-3,2.7-3.3,4.7c-0.1,0.8-0.2,1.6,0,2.3
		c0.5,1.6,2.3,2.4,4,3c19.6,6.2,21.9,24.4,23.7,26.3c1.2,1.3,2.7,3.3,2.6,5.2c0,0-5.3-4.9-7.5,0.9c-2.3,6.1,5.2,16.1,5.5,22.6
		c0.3,6-1.1,12-0.1,17.9c0.4,2.1,1,3.9,3,4.9c1.3,0.6,6,0.8,6.9-0.5c-5.5,8.2-13.4,5.1-15.2,2.8c-10.2,21.3-23.7,11.8-23.7,11.8
		s16.6-10.4,9.9-21c-13.4-21.2,0.5-28.1,0.5-28.1c-4.3,4.2-13.6,2.9-13.6,2.9s15.7-16.1-4.5-26C408.7,41.8,405.6,58.7,388.5,69.4z"
		/>
	<path d="M365.4,81.2c1.7,0.6,2.9,2.3,2.9,4.2c0,2.5-2,4.5-4.5,4.5c-2.5,0-4.5-2-4.5-4.5c0-0.2,0-0.5,0-0.7"/>
	<path class="st4" d="M367.3,73.9"/>
	<g>
		<path class="st2" d="M350.5,79.2c3-0.5,6.1-0.9,9.1-1.3c1.5-0.2,3-0.3,4.6-0.5c1.5-0.1,3-0.4,4.6-0.6l0.1,0l1.2,0.3
			c1.7,0.5,3.2,1.5,4.5,2.6c0.7,0.6,1.3,1.2,2,2c0.6,0.7,1.2,1.5,1.7,2.5c0.1,0.2,0,0.4-0.2,0.5c0,0-0.1,0-0.1,0
			c-1.1,0.2-2.1,0.3-3,0.3c-1,0-1.9-0.1-2.8-0.3c-1.8-0.3-3.4-0.8-4.9-1.9l1.3,0.3c-1.5-0.3-3-0.7-4.5-0.9c-1.5-0.2-3-0.4-4.5-0.7
			c-3-0.5-6-1.1-9-1.9c-0.2,0-0.3-0.2-0.2-0.4C350.3,79.3,350.4,79.2,350.5,79.2z"/>
	</g>
	<path d="M398.4,80.2c-1.7,0.6-2.9,2.3-2.9,4.2c0,2.5,2,4.5,4.5,4.5s4.5-2,4.5-4.5c0-0.2,0-0.5,0-0.7"/>
	<path class="st4" d="M396.6,72.8"/>
	<g>
		<path class="st2" d="M413.4,78.8c-3,0.7-6,1.3-9,1.9c-1.5,0.3-3,0.5-4.5,0.7c-1.5,0.2-3,0.6-4.5,0.9l1.3-0.3
			c-1.4,1-3.1,1.5-4.9,1.9c-0.9,0.2-1.8,0.3-2.8,0.3c-1,0-1.9,0-3-0.3c-0.2,0-0.4-0.3-0.3-0.5c0,0,0-0.1,0-0.1
			c0.5-1,1.1-1.8,1.7-2.5c0.6-0.7,1.3-1.4,2-2c1.4-1.2,2.8-2.1,4.5-2.6l1.2-0.3l0.1,0c1.5,0.2,3,0.5,4.6,0.6c1.5,0.1,3,0.3,4.6,0.5
			c3,0.3,6.1,0.8,9.1,1.3c0.2,0,0.3,0.2,0.3,0.4C413.6,78.6,413.5,78.7,413.4,78.8z"/>
	</g>
</g>
<g>
	<circle class="st5" cx="215.9" cy="80.1" r="4.5"/>
	<circle class="st5" cx="245.2" cy="80.1" r="4.5"/>
	<path class="st6" d="M194.4,108c9.2,11.6,20.6,25.7,35.6,27c17,1.5,29.3-14.2,39.3-27"/>
	<g>
		<path class="st0" d="M228.2,173.7"/>
	</g>
	<g>
		<path class="st0" d="M227.9,155.5"/>
	</g>
	<g>
		<path class="st7" d="M173.1,62.7c0.3-4,1.3-7.4,2.5-10.6c1.3-3.3,2.9-6.2,4.7-9c3.7-5.6,8.4-10.2,13.7-14
			c10.6-7.6,23.6-11.4,36.5-11.5c1.6,0,3.2,0,4.8,0.1c1.6,0.1,3.1,0.3,4.7,0.4c1.6,0.2,3.1,0.5,4.7,0.8c1.6,0.4,3.1,0.7,4.6,1.1
			c6.1,1.7,12.1,4.3,17.6,7.9c5.4,3.6,10.4,8.1,14.3,13.7c1,1.4,1.9,2.8,2.7,4.3c0.8,1.5,1.6,3,2.3,4.7c1.3,3.3,2.4,6.7,2.6,10.7
			l0.1,1.1c0,0.7-0.5,1.4-1.2,1.4c-0.3,0-0.6-0.1-0.9-0.3c-0.9-0.7-2-1.4-3-2c-1-0.7-2.1-1.3-3.2-1.9c-2.2-1.2-4.4-2.3-6.6-3.2
			c-4.5-2-9.2-3.6-13.9-4.9c-1.2-0.3-2.4-0.6-3.6-0.9c-1.2-0.3-2.4-0.5-3.6-0.8c-2.4-0.5-4.8-0.9-7.3-1.2c-4.9-0.6-9.8-0.8-14.7-0.8
			c-9.8-0.1-19.6,1.5-29.1,4.3c-4.7,1.4-9.3,3.2-13.8,5.3c-2.2,1-4.5,2.2-6.6,3.4c-1.1,0.6-2.1,1.3-3.2,1.9c-1,0.6-2.1,1.3-3,2
			c-0.6,0.4-1.4,0.3-1.8-0.3c-0.2-0.3-0.3-0.6-0.3-0.9L173.1,62.7z"/>
	</g>
	<g>
		<g>
			<path class="st7" d="M231.5,43c-2.1,4-5,7.6-8.4,10.7c-3.4,3.2-7.2,5.8-11.3,8.1c-4.1,2.2-8.3,4.1-12.6,5.6
				c-4.3,1.5-8.6,2.7-12.8,3.7l8.3-9.8c1,9.2,1.7,18.4,2.1,27.7c0.4,9.3,0.4,18.6,0,28c-0.4,9.4-1.3,18.8-2.8,28.1
				c-0.4,2.3-0.9,4.7-1.3,7c-0.5,2.3-1,4.7-1.6,7c-1.2,4.7-2.5,9.3-4.4,13.9c-0.8-2.4-1.4-4.7-2-7c-0.6-2.3-1.2-4.7-1.7-7
				c-1.1-4.6-2-9.3-2.8-13.9c-1.6-9.2-2.9-18.4-3.8-27.7c-0.9-9.2-1.5-18.5-1.7-27.8c-0.2-9.3-0.1-18.7,0.5-28l0.6-9.4l7.7-0.5
				c4.1-0.2,8.2-0.5,12.2-0.8c4-0.3,8-0.7,11.9-1.3c3.9-0.6,7.9-1.4,11.8-2.5C223.4,46.2,227.3,44.7,231.5,43z"/>
		</g>
		<g>
			<path class="st7" d="M231.5,43c4.2,1.8,8.1,3.2,12.1,4.3c4,1.1,7.9,1.9,11.8,2.5c3.9,0.6,7.9,0.9,11.9,1.3
				c4,0.3,8.1,0.5,12.2,0.8l7.7,0.5l0.6,9.4c0.6,9.4,0.7,18.7,0.5,28c-0.2,9.3-0.8,18.6-1.7,27.8c-0.9,9.2-2.1,18.4-3.8,27.7
				c-0.8,4.6-1.7,9.2-2.8,13.9c-0.5,2.3-1.1,4.6-1.7,7c-0.6,2.3-1.2,4.7-2,7c-1.8-4.6-3.2-9.2-4.4-13.9c-0.6-2.3-1.1-4.7-1.6-7
				c-0.4-2.3-0.9-4.7-1.3-7c-1.6-9.4-2.4-18.8-2.8-28.1c-0.4-9.4-0.4-18.7,0-28c0.4-9.3,1.1-18.5,2.1-27.7l8.3,9.8
				c-4.2-1-8.6-2.2-12.8-3.7c-4.3-1.5-8.5-3.3-12.6-5.6c-4-2.3-7.9-4.9-11.3-8.1C236.5,50.5,233.5,47,231.5,43z"/>
		</g>
	</g>
	<g>
		<path class="st8" d="M218.3,114.4c2.2-1.2,4.5-1.8,6.7-2.2c2.2-0.4,4.5-0.6,6.7-0.6c2.2,0,4.5,0.2,6.7,0.6c2.2,0.4,4.5,1,6.7,2.2
			c-2.2,1.2-4.5,1.8-6.7,2.2c-2.2,0.4-4.5,0.6-6.7,0.6c-2.2,0-4.5-0.2-6.7-0.6C222.8,116.2,220.5,115.6,218.3,114.4z"/>
	</g>
	<g>
		<path class="st7" d="M198.5,72.7c2.5-0.4,5-0.7,7.5-1c2.5-0.3,5-0.6,7.5-0.8c2.5-0.3,5-0.8,7.5-0.7c1.3,0,2.5,0.2,3.8,0.3
			c1.3,0.2,2.5,0.4,3.8,0.9c0.1,0,0.1,0.1,0.1,0.2c0,0.1-0.1,0.1-0.1,0.1c-1.2,0.5-2.5,0.9-3.7,1.2c-1.2,0.3-2.5,0.5-3.7,0.7
			c-2.5,0.4-5,0-7.5,0c-2.5,0-5-0.1-7.6-0.2c-2.5-0.1-5-0.2-7.6-0.3c-0.1,0-0.2-0.1-0.2-0.2C198.3,72.8,198.4,72.7,198.5,72.7z"/>
	</g>
	<g>
		<path class="st7" d="M264.7,73.2c-2.5,0.1-5,0.2-7.5,0.3c-2.5,0.1-5,0.1-7.5,0.1c-2.5,0-5,0.3-7.5,0c-1.2-0.2-2.5-0.4-3.7-0.7
			c-1.2-0.3-2.5-0.7-3.7-1.2c-0.1,0-0.1-0.1-0.1-0.2c0,0,0.1-0.1,0.1-0.1c1.3-0.4,2.5-0.7,3.8-0.8c1.3-0.2,2.5-0.3,3.8-0.3
			c2.5-0.1,5,0.4,7.5,0.7c2.5,0.3,5,0.6,7.5,0.9c2.5,0.4,5,0.7,7.5,1.1c0.1,0,0.2,0.1,0.1,0.2C264.8,73.1,264.8,73.2,264.7,73.2z"/>
	</g>
	<g>
		<line class="st9" x1="175.2" y1="55.7" x2="230.9" y2="33.4"/>
		<path class="st10" d="M175.1,55.5c1-0.8,2.1-1.6,3.1-2.2c1.1-0.7,2.2-1.3,3.3-1.9c1.1-0.6,2.2-1.1,3.4-1.6
			c1.1-0.5,2.3-0.9,3.5-1.3c2.4-0.7,5-1,7.4-1.8c2.4-0.8,4.6-1.9,6.8-3.2c1.1-0.6,2.2-1.3,3.3-1.9c1.1-0.6,2.2-1.1,3.4-1.7
			c2.3-1.1,4.5-2.2,6.9-3c2.4-0.9,4.7-1.6,7.2-2.2c2.4-0.6,4.9-1.2,7.5-1.4c0.1,0,0.2,0.1,0.2,0.2c0,0.1,0,0.2-0.1,0.2
			c-2.1,1.6-4.2,2.9-6.4,4.1c-2.2,1.2-4.5,2.3-6.8,3.3c-2.3,1-4.7,1.8-7.1,2.5c-1.2,0.4-2.4,0.8-3.6,1.1c-1.2,0.3-2.5,0.6-3.7,0.9
			c-2.5,0.6-4.9,1.3-7.1,2.3c-2.3,1-4.3,2.6-6.6,3.8c-1.1,0.6-2.3,1.1-3.4,1.5c-1.2,0.4-2.4,0.8-3.6,1.2c-1.2,0.4-2.4,0.7-3.7,0.9
			c-1.2,0.3-2.5,0.5-3.8,0.5c-0.1,0-0.2-0.1-0.2-0.2C175,55.6,175,55.6,175.1,55.5z"/>
	</g>
	<g>
		<line class="st9" x1="287.8" y1="53.4" x2="230.9" y2="33.4"/>
		<path class="st10" d="M287.7,53.6c-1.3,0-2.6-0.2-3.9-0.4c-1.3-0.2-2.5-0.5-3.7-0.8c-1.2-0.3-2.4-0.6-3.6-1
			c-1.2-0.4-2.4-0.8-3.5-1.4c-2.3-1.1-4.4-2.6-6.8-3.5c-2.3-1-4.8-1.6-7.3-2c-1.2-0.2-2.5-0.4-3.7-0.7c-1.2-0.3-2.4-0.6-3.7-1
			c-2.4-0.7-4.8-1.4-7.2-2.2c-2.3-0.9-4.7-1.9-6.9-3c-2.3-1.1-4.5-2.3-6.6-3.9c-0.1-0.1-0.1-0.2-0.1-0.3c0-0.1,0.1-0.1,0.2-0.1
			c2.6,0.2,5.1,0.6,7.6,1.1c2.5,0.5,4.9,1.2,7.3,1.9c2.4,0.8,4.7,1.8,7,2.7c1.2,0.5,2.3,1,3.5,1.5c1.1,0.5,2.3,1.2,3.4,1.8
			c2.2,1.2,4.5,2.2,7,2.9c2.4,0.7,5,0.9,7.5,1.5c1.2,0.3,2.4,0.7,3.6,1.1c1.2,0.4,2.3,0.9,3.5,1.5c1.1,0.5,2.3,1.1,3.4,1.7
			c1.1,0.6,2.2,1.3,3.3,2.1c0.1,0.1,0.1,0.2,0,0.3C287.9,53.5,287.8,53.6,287.7,53.6z"/>
	</g>
	<polygon class="st11" points="237.7,37 227.3,26.1 235.1,26.1 224.7,37 231.2,42.2 	"/>
	<g>
		<g>
			<path class="st12" d="M224.4,99.7c1.1-0.4,2.2-0.5,3.3-0.6c1.1,0,2.2,0.1,3.3,0.6c-1.1,0.4-2.2,0.5-3.3,0.6
				C226.7,100.3,225.5,100.2,224.4,99.7z"/>
		</g>
		<g>
			<path class="st12" d="M232.3,99.7c1.1-0.4,2.2-0.5,3.3-0.6c1.1,0,2.2,0.1,3.3,0.6c-1.1,0.4-2.2,0.5-3.3,0.6
				C234.6,100.3,233.5,100.2,232.3,99.7z"/>
		</g>
	</g>
</g>
</svg>
