<?xml version="1.0" encoding="utf-8"?>
<!-- Generator: Adobe Illustrator 23.0.1, SVG Export Plug-In . SVG Version: 6.00 Build 0)  -->
<svg version="1.1" id="Layer_1" xmlns="http://www.w3.org/2000/svg" xmlns:xlink="http://www.w3.org/1999/xlink" x="0px" y="0px"
	 viewBox="0 0 190.7 142" style="enable-background:new 0 0 190.7 142;" xml:space="preserve">
<style type="text/css">
	.st0{fill:#940007;}
	.st1{fill:none;stroke:#60a0ff;stroke-width:2.1377;stroke-miterlimit:10;}
	.st2{fill:#ff7300;}
</style>
<path class="st0" d="M25.2,134.3C18.5,116.7,0,86.6,0,86.6s19,25.8,29.2,23.6c16.9-3.5-5.3-57.5-5.3-57.5s23.1,39.8,39.6,37.4
	C83.8,87.2,92.1,24,92.1,24s9,56.5,26.3,64.2c17.9,8,39.2-35.4,39.2-35.4s-16.2,55.1-2.9,57.5c13.2,2.4,36-23.6,36-23.6
	s-18.1,23.6-24.3,47.7c0,0-30-24.1-71.1-24.1c-40.5,0-70.2,23.6-70.2,23.6"/>
<g>
	<circle class="st1" cx="55.5" cy="36.2" r="6.2"/>
	<path class="st1" d="M58.6,30.8"/>
	<g>
		<line class="st1" x1="44.1" y1="16.6" x2="52.4" y2="30.8"/>
		<g>
			<line class="st1" x1="48.8" y1="15.9" x2="46.3" y2="20.5"/>
			<line class="st1" x1="41" y1="20.6" x2="46.3" y2="20.5"/>
		</g>
		<g>
			<line class="st1" x1="51.4" y1="20.1" x2="48.9" y2="24.7"/>
			<line class="st1" x1="43.6" y1="24.8" x2="48.9" y2="24.7"/>
		</g>
	</g>
	<g>
		<line class="st1" x1="66.9" y1="17" x2="58.6" y2="31.2"/>
		<g>
			<line class="st1" x1="69.8" y1="20.7" x2="64.6" y2="20.7"/>
			<line class="st1" x1="61.9" y1="16.2" x2="64.6" y2="20.8"/>
		</g>
		<g>
			<line class="st1" x1="67.4" y1="25.1" x2="62.2" y2="25.1"/>
			<line class="st1" x1="59.5" y1="20.6" x2="62.2" y2="25.1"/>
		</g>
	</g>
	<g>
		<line class="st1" x1="78.2" y1="36.3" x2="61.7" y2="36.3"/>
		<g>
			<line class="st1" x1="76.5" y1="40.7" x2="73.7" y2="36.2"/>
			<line class="st1" x1="76.3" y1="31.6" x2="73.7" y2="36.2"/>
		</g>
		<g>
			<line class="st1" x1="71.5" y1="40.9" x2="68.7" y2="36.4"/>
			<line class="st1" x1="71.3" y1="31.8" x2="68.7" y2="36.4"/>
		</g>
	</g>
	<g>
		<line class="st1" x1="32.8" y1="36.4" x2="49.2" y2="36.4"/>
		<g>
			<line class="st1" x1="34.5" y1="40.8" x2="37.2" y2="36.3"/>
			<line class="st1" x1="34.7" y1="31.7" x2="37.2" y2="36.3"/>
		</g>
		<g>
			<line class="st1" x1="39.5" y1="41" x2="42.2" y2="36.5"/>
			<line class="st1" x1="39.7" y1="31.8" x2="42.2" y2="36.5"/>
		</g>
	</g>
	<g>
		<line class="st1" x1="66.9" y1="55.5" x2="58.6" y2="41.3"/>
		<g>
			<line class="st1" x1="69.8" y1="51.8" x2="64.6" y2="51.7"/>
			<line class="st1" x1="61.9" y1="56.2" x2="64.6" y2="51.7"/>
		</g>
		<g>
			<line class="st1" x1="67.4" y1="47.4" x2="62.2" y2="47.3"/>
			<line class="st1" x1="59.5" y1="51.9" x2="62.2" y2="47.3"/>
		</g>
	</g>
	<g>
		<line class="st1" x1="44" y1="55.7" x2="52.2" y2="41.5"/>
		<g>
			<line class="st1" x1="48.7" y1="56.4" x2="46.1" y2="51.8"/>
			<line class="st1" x1="40.9" y1="51.7" x2="46.1" y2="51.8"/>
		</g>
		<g>
			<line class="st1" x1="51.3" y1="52.2" x2="48.7" y2="47.6"/>
			<line class="st1" x1="43.5" y1="47.5" x2="48.7" y2="47.6"/>
		</g>
	</g>
</g>
<path class="st2" d="M108.9,42.2c-0.1-8.1,7-15,7.6-18.5c0.6-3.5,1.8-9.4-1-11.5c5.2,1.1,11.7,9.2,12.2,14.5
	c-0.6-7.3-0.3-11.4,3.5-17.3c2.7-4.3,7.3-6.3,11.3-9.5c-3,3.8-7.8,16.3-2.8,23.8c3.6,5.4,6.9,11.5,6.6,18.2
	c-0.8,14.4-17.9,16.8-21.9,14.6c5.4-0.5,6.8-4.4,6.5-7.3c-0.9-8.7,4.3-9.7,4.3-9.7s-7.1,0-9.5,6.6c1.2-5.1,2.3-9.6-4.3-15.7
	c8.8,8.5-9.2,12.9-1.1,24.7C120.2,55.2,109.1,52,108.9,42.2z"/>
<g>
	<path class="st0" d="M28.9,142c4.1-4.4,9-8.1,14.1-11.3c5.1-3.2,10.6-6,16.3-8.2c5.7-2.2,11.6-3.9,17.7-5
		c6.1-1.1,12.2-1.7,18.4-1.7l0,8.6l-2.1,0l-0.1-8.6c6.3-0.1,12.7,0.3,18.9,1.3c1.6,0.2,3.1,0.6,4.7,0.8c1.5,0.3,3.1,0.7,4.6,1.1
		c3.1,0.8,6.1,1.7,9.1,2.8c5.9,2.2,11.6,4.9,17,8.2c2.7,1.7,5.2,3.5,7.6,5.5c2.4,2,4.7,4.1,6.7,6.5c-5.2-3.3-10.7-5.9-16.2-8.2
		c-5.6-2.3-11.3-4.1-17-5.5c-5.8-1.4-11.6-2.5-17.5-3.1c-5.9-0.6-11.8-0.9-17.7-0.8l-0.1-8.6l2.1,0l0,8.6c-5.7,0-11.4,0.4-17.1,1.1
		c-5.7,0.8-11.3,1.9-16.9,3.4c-5.6,1.5-11.1,3.3-16.5,5.5C39.5,136.5,34.1,139,28.9,142z"/>
</g>
<circle class="st0" cx="62.7" cy="73" r="4.7"/>
<circle class="st0" cx="123.2" cy="73" r="4.4"/>
<circle class="st0" cx="24" cy="92.9" r="4.7"/>
<circle class="st0" cx="162.5" cy="92.9" r="4.7"/>
</svg>
