<svg xmlns="http://www.w3.org/2000/svg" viewBox="0 0 174 182.1"><defs><style>.cls-1{fill:#fff;}.cls-2{fill:#f2e4d0;}.cls-3{fill:#36a9e1;}.cls-4{fill:#9b2930;}.cls-5{fill:none;}.cls-6{fill:#c6c6c6;}.cls-7{fill:#00a19a;}.cls-8{fill:#cbbba0;}</style></defs><title>characters</title><g id="Layer_3" data-name="Layer 3"><path class="cls-1" d="M137.53,54.87,88,25.46l-49.24,23L46,106.15c10.48,13.23,23.47,29.29,40.57,30.78,19.37,1.71,33.39-16.19,44.79-30.78Z"/><path class="cls-2" d="M137.53,54.87l-25-14.59c-8.32-4.79-16.53-9.69-24.74-14.59h.35L39,48.83l.23-.46L46.59,106l-.12-.23c5.59,7.07,11.29,14.25,18.12,20.18a52.12,52.12,0,0,0,11.17,7.52,30.38,30.38,0,0,0,13,3.07,28.79,28.79,0,0,0,13-2.84,43.88,43.88,0,0,0,11.17-7.53c6.84-5.92,12.53-13.1,18.12-20.28l-.12.11c1-8.55,2.17-17,3.2-25.53Zm0,0-2.84,25.64c-.92,8.55-1.94,17.1-3,25.76v.23c-5.58,7.18-11.17,14.36-18.12,20.4a48.46,48.46,0,0,1-11.4,7.63,30.39,30.39,0,0,1-26.66-.22,48.09,48.09,0,0,1-11.4-7.53c-7-5.92-12.77-13.1-18.35-20.17l-.11-.11v-.12L38.5,48.71v-.34l.34-.11L88.07,25.35l.12-.11.11.11c8.32,4.9,16.53,9.92,24.73,14.82Z"/><path class="cls-3" d="M72,69.94a5.49,5.49,0,1,1-5.9.31"/><path class="cls-3" d="M108.2,70.17a5.51,5.51,0,1,1-5.34-.45"/><path class="cls-2" d="M21.74,54.53a42.47,42.47,0,0,1,2.85-12.08A58.2,58.2,0,0,1,30,32.19a61.11,61.11,0,0,1,15.61-16,72.58,72.58,0,0,1,41.6-13.1c1.82,0,3.65,0,5.47.11s3.53.34,5.36.46,3.53.57,5.35.91,3.54.8,5.25,1.25a71.62,71.62,0,0,1,20,9,60.39,60.39,0,0,1,16.3,15.61,44.13,44.13,0,0,1,3.08,4.9,59.39,59.39,0,0,1,2.62,5.36,37.35,37.35,0,0,1,3,12.19l.12,1.26a1.52,1.52,0,0,1-1.37,1.59,1.86,1.86,0,0,1-1-.34,33.73,33.73,0,0,0-3.41-2.28A39.89,39.89,0,0,0,144.26,51a77.17,77.17,0,0,0-7.52-3.64,113.47,113.47,0,0,0-15.85-5.59l-4.1-1c-1.37-.35-2.73-.57-4.1-.92-2.74-.56-5.47-1-8.32-1.36a136.37,136.37,0,0,0-16.75-.91,114.83,114.83,0,0,0-48.9,10.94c-2.5,1.14-5.13,2.5-7.52,3.87-1.25.69-2.39,1.48-3.65,2.17a33.73,33.73,0,0,0-3.41,2.28,1.47,1.47,0,0,1-2.06-.35,1.88,1.88,0,0,1-.34-1Z"/><path class="cls-2" d="M88.3,32.08a45,45,0,0,1-9.57,12.19A64.75,64.75,0,0,1,65.85,53.5a100,100,0,0,1-14.36,6.38A148.8,148.8,0,0,1,36.9,64.1l9.46-11.17c1.14,10.49,1.94,21,2.39,31.57s.46,21.2,0,31.91a273.1,273.1,0,0,1-3.19,32c-.45,2.62-1,5.35-1.48,8s-1.14,5.35-1.82,8a115.35,115.35,0,0,1-5,15.84c-.91-2.73-1.59-5.35-2.28-8s-1.37-5.36-1.94-8c-1.25-5.24-2.27-10.6-3.19-15.84-1.82-10.49-3.3-21-4.33-31.57s-1.71-21.09-1.93-31.69-.12-21.31.57-31.91l.68-10.71L33.59,42c4.68-.23,9.35-.57,13.91-.91s9.12-.8,13.56-1.48a115.11,115.11,0,0,0,13.45-2.85A90.83,90.83,0,0,0,88.3,32.08Z"/><path class="cls-2" d="M88.3,32.08A107,107,0,0,0,102.09,37a117.82,117.82,0,0,0,13.45,2.84c4.44.69,9,1,13.56,1.49s9.23.57,13.9.91l8.78.57.68,10.71c.69,10.71.8,21.31.57,31.91s-.91,21.2-1.93,31.69-2.4,21-4.33,31.57c-.92,5.24-1.94,10.48-3.2,15.84-.57,2.62-1.25,5.24-1.93,8s-1.37,5.36-2.28,8a134.59,134.59,0,0,1-5-15.84c-.68-2.62-1.25-5.36-1.82-8s-1-5.35-1.48-8a254,254,0,0,1-3.19-32c-.46-10.71-.46-21.31,0-31.91s1.25-21.09,2.39-31.57l9.46,11.17a140.52,140.52,0,0,1-14.59-4.22,89.15,89.15,0,0,1-14.36-6.38A68.54,68.54,0,0,1,97.87,44.5,49.41,49.41,0,0,1,88.3,32.08Z"/><path class="cls-4" d="M73.26,113.45a24.94,24.94,0,0,1,7.63-2.51,43.2,43.2,0,0,1,15.27,0,25.08,25.08,0,0,1,7.64,2.51A25.08,25.08,0,0,1,96.16,116a43.2,43.2,0,0,1-15.27,0A24.94,24.94,0,0,1,73.26,113.45Z"/><path class="cls-2" d="M50.69,65.92c2.85-.45,5.7-.79,8.55-1.14s5.7-.68,8.55-.91a54.71,54.71,0,0,1,8.54-.8c1.48,0,2.85.23,4.33.35a19.29,19.29,0,0,1,4.33,1c.12,0,.12.12.12.23s-.12.11-.12.11a29.5,29.5,0,0,1-4.21,1.37c-1.37.34-2.85.57-4.22.8-2.85.46-5.7,0-8.55,0s-5.7-.11-8.66-.23l-8.66-.34a.25.25,0,0,1-.23-.23A.26.26,0,0,1,50.69,65.92Z"/><path class="cls-2" d="M126.14,66.49l-8.55.35c-2.85.11-5.7.11-8.55.11a71.73,71.73,0,0,1-8.55,0c-1.36-.23-2.84-.46-4.21-.8a30,30,0,0,1-4.22-1.37c-.11,0-.11-.11-.11-.22l.11-.12a19.67,19.67,0,0,1,4.33-.91,27.47,27.47,0,0,1,4.33-.34,52.62,52.62,0,0,1,8.55.8l8.55,1c2.85.46,5.7.8,8.55,1.26.11,0,.22.11.11.22C126.25,66.38,126.25,66.49,126.14,66.49Z"/><line class="cls-5" x1="24.14" y1="46.55" x2="87.62" y2="21.13"/><path class="cls-6" d="M24,46.32a34.9,34.9,0,0,1,3.53-2.51c1.26-.79,2.51-1.48,3.77-2.16a38.26,38.26,0,0,1,3.87-1.83c1.25-.56,2.62-1,4-1.48,2.73-.79,5.7-1.14,8.43-2.05a39.13,39.13,0,0,0,7.75-3.65c1.26-.68,2.51-1.48,3.76-2.16s2.51-1.25,3.88-1.94a74.74,74.74,0,0,1,16.07-5.92A50.9,50.9,0,0,1,87.62,21a.24.24,0,0,1,.22.23c0,.11,0,.23-.11.23a57.08,57.08,0,0,1-7.29,4.67c-2.51,1.37-5.13,2.62-7.75,3.76a68.87,68.87,0,0,1-8.1,2.85c-1.36.45-2.73.91-4.1,1.25l-4.22,1a44.79,44.79,0,0,0-8.09,2.62c-2.62,1.14-4.9,3-7.52,4.33a29.68,29.68,0,0,1-3.87,1.71l-4.11,1.37a24.89,24.89,0,0,1-4.21,1,17.66,17.66,0,0,1-4.33.57.24.24,0,0,1-.23-.22Z"/><line class="cls-5" x1="152.46" y1="43.93" x2="87.62" y2="21.13"/><path class="cls-6" d="M152.35,44.16a29.07,29.07,0,0,1-4.44-.46c-1.49-.23-2.85-.57-4.22-.91s-2.74-.69-4.1-1.14a23.91,23.91,0,0,1-4-1.6c-2.62-1.25-5-3-7.75-4a34.75,34.75,0,0,0-8.32-2.28c-1.37-.22-2.85-.45-4.22-.79s-2.73-.69-4.22-1.14c-2.73-.8-5.47-1.6-8.2-2.51S97.53,27.17,95,25.92a42.29,42.29,0,0,1-7.52-4.44.45.45,0,0,1-.11-.35c0-.11.11-.11.23-.11a72.52,72.52,0,0,1,8.66,1.25c2.85.57,5.58,1.37,8.32,2.17s5.35,2,8,3.08c1.36.57,2.62,1.14,4,1.71s2.63,1.36,3.88,2.05a38.51,38.51,0,0,0,8,3.3c2.73.8,5.7,1,8.54,1.71,1.37.34,2.74.8,4.11,1.26a28.51,28.51,0,0,1,4,1.71c1.25.56,2.62,1.25,3.87,1.93a34.23,34.23,0,0,1,3.76,2.4.21.21,0,0,1,0,.34C152.58,44,152.46,44.16,152.35,44.16Z"/><polygon class="cls-7" points="95.37 25.24 83.51 12.81 92.4 12.81 80.55 25.24 87.96 31.16 95.37 25.24"/><path class="cls-8" d="M80.21,96.7A14.63,14.63,0,0,1,84,96a8.79,8.79,0,0,1,3.76.69,14.61,14.61,0,0,1-3.76.68A9.08,9.08,0,0,1,80.21,96.7Z"/><path class="cls-8" d="M89.21,96.7A14.7,14.7,0,0,1,93,96a8.76,8.76,0,0,1,3.76.69,14.53,14.53,0,0,1-3.76.68A9.42,9.42,0,0,1,89.21,96.7Z"/></g></svg>