<?xml version="1.0" encoding="utf-8"?>
<!-- Generator: Adobe Illustrator 23.0.1, SVG Export Plug-In . SVG Version: 6.00 Build 0)  -->
<svg version="1.1" id="Layer_1" xmlns="http://www.w3.org/2000/svg" xmlns:xlink="http://www.w3.org/1999/xlink" x="0px" y="0px"
	 viewBox="0 0 70 70" style="enable-background:new 0 0 70 70;" xml:space="preserve">
<style type="text/css">
	.st0{fill:#61130E;}
</style>
<g>
	<circle cx="17.1" cy="16.8" r="6.8"/>
	<path class="st0" d="M23.8,16.8c0,1.8-0.7,3.5-1.9,4.9c-1.2,1.3-3,2.2-4.9,2.4c-1.9,0.1-3.9-0.5-5.4-1.9c-0.7-0.7-1.3-1.5-1.7-2.4
		c-0.4-0.9-0.6-1.9-0.6-3c0-2,0.9-4.1,2.4-5.4c1.5-1.4,3.5-2,5.4-1.9c1.9,0.1,3.7,1,4.9,2.4C23.2,13.3,23.9,15,23.8,16.8z
		 M23.8,16.8c0-0.9-0.2-1.8-0.6-2.6c-0.4-0.8-0.9-1.5-1.5-2.1c-1.3-1.2-3-1.7-4.7-1.6c-1.6,0.1-3.2,0.9-4.2,2.1
		c-1,1.2-1.6,2.7-1.6,4.2c0,1.5,0.6,3,1.6,4.2c1,1.2,2.5,2,4.2,2.1c1.6,0.1,3.4-0.4,4.7-1.6C23.1,20.3,23.8,18.6,23.8,16.8z"/>
</g>
<g>
	<circle cx="53.1" cy="54.4" r="6.8"/>
	<path class="st0" d="M59.9,54.4c0,1.8-0.7,3.5-1.9,4.9c-1.2,1.3-3,2.2-4.9,2.4c-1.9,0.1-3.9-0.5-5.4-1.9c-0.7-0.7-1.3-1.5-1.7-2.4
		c-0.4-0.9-0.6-1.9-0.6-3c0-2,0.9-4.1,2.4-5.4c1.5-1.4,3.5-2,5.4-1.9c1.9,0.1,3.7,1,4.9,2.4C59.2,50.8,59.9,52.6,59.9,54.4z
		 M59.9,54.4c0-0.9-0.2-1.8-0.6-2.6c-0.4-0.8-0.9-1.5-1.5-2.1c-1.3-1.2-3-1.7-4.7-1.6c-1.6,0.1-3.2,0.9-4.2,2.1
		c-1,1.2-1.6,2.7-1.6,4.2c0,1.5,0.6,3,1.6,4.2c1,1.2,2.5,2,4.2,2.1c1.6,0.1,3.4-0.4,4.7-1.6C59.1,57.9,59.9,56.2,59.9,54.4z"/>
</g>
<g>
	<circle cx="17.1" cy="54.4" r="6.8"/>
	<path class="st0" d="M23.8,54.4c0,1.8-0.7,3.5-1.9,4.9c-1.2,1.3-3,2.2-4.9,2.4c-1.9,0.1-3.9-0.5-5.4-1.9c-0.7-0.7-1.3-1.5-1.7-2.4
		c-0.4-0.9-0.6-1.9-0.6-3c0-2,0.9-4.1,2.4-5.4c1.5-1.4,3.5-2,5.4-1.9c1.9,0.1,3.7,1,4.9,2.4C23.2,50.8,23.9,52.6,23.8,54.4z
		 M23.8,54.4c0-0.9-0.2-1.8-0.6-2.6c-0.4-0.8-0.9-1.5-1.5-2.1c-1.3-1.2-3-1.7-4.7-1.6c-1.6,0.1-3.2,0.9-4.2,2.1
		c-1,1.2-1.6,2.7-1.6,4.2c0,1.5,0.6,3,1.6,4.2c1,1.2,2.5,2,4.2,2.1c1.6,0.1,3.4-0.4,4.7-1.6C23.1,57.9,23.8,56.2,23.8,54.4z"/>
</g>
<g>
	<circle cx="53.1" cy="16.8" r="6.8"/>
	<path class="st0" d="M59.9,16.8c0,1.8-0.7,3.5-1.9,4.9c-1.2,1.3-3,2.2-4.9,2.4c-1.9,0.1-3.9-0.5-5.4-1.9c-0.7-0.7-1.3-1.5-1.7-2.4
		c-0.4-0.9-0.6-1.9-0.6-3c0-2,0.9-4.1,2.4-5.4c1.5-1.4,3.5-2,5.4-1.9c1.9,0.1,3.7,1,4.9,2.4C59.2,13.3,59.9,15,59.9,16.8z
		 M59.9,16.8c0-0.9-0.2-1.8-0.6-2.6c-0.4-0.8-0.9-1.5-1.5-2.1c-1.3-1.2-3-1.7-4.7-1.6c-1.6,0.1-3.2,0.9-4.2,2.1
		c-1,1.2-1.6,2.7-1.6,4.2c0,1.5,0.6,3,1.6,4.2c1,1.2,2.5,2,4.2,2.1c1.6,0.1,3.4-0.4,4.7-1.6C59.1,20.3,59.9,18.6,59.9,16.8z"/>
</g>
</svg>
