<?xml version="1.0" encoding="utf-8"?>
<!-- Generator: Adobe Illustrator 23.0.1, SVG Export Plug-In . SVG Version: 6.00 Build 0)  -->
<svg version="1.1" id="Layer_1" xmlns="http://www.w3.org/2000/svg" xmlns:xlink="http://www.w3.org/1999/xlink" x="0px" y="0px"
	 viewBox="0 0 70 70" style="enable-background:new 0 0 70 70;" xml:space="preserve">
<path d="M7.7,61.9c0,0,5-5.5,12.4-8.1c6.7-2.3,14.3-3.9,18.9-7.2c2.4-1.7,6.9-7.7,3.6-10.4c-2.2-1.8-6.5-2.6-8.4-0.3
	c-1.7,1.9-7.3,8.9-9.7,10.7c-1.4,1.1-4.4,0.8-5.2-0.5c-0.1-0.2-1.4-2.7-1.1-2.7c0,0,2.2,1.4,4.2,0.9c-0.6-0.5-0.9-1.5-1.2-2.2
	c1,0.6,2,0,3.2-0.4c-0.6-0.4-0.9-1.2-0.8-1.9c1.5,1.5,3.6-0.1,4.6-2c0.6-1.1,0.3-3.1,1.1-4.1c0.7-0.9,4.3,0.1,3.7-3.1
	c-0.4-2.3-3.8-3.4-5.3,0.5c-0.9,2.2-3,2.3-5,2.7c-0.6,0.9-0.4,1.8,0.5,2.9c-2,0-3.2,0.6-4.9-0.5c0.2,1.5,0.3,2.3,1.4,3.3
	c-2.3,0.1-3.9,0.2-5.9-0.9c0.7,1.5,1.9,2.7,3.5,3.2c-2.8,0.2-5-0.6-7.2-2.6c-1.2-1.1-0.8-4.3,0.5-4.8c2.1-0.9,4.7-2.5,5.7-3.2
	c1.9-1.5,3.5-3.3,4.8-5.4c2.5-4,3.4-8.7,7-12c3.2-2.9,7-4.2,11.1-4.5c-2.8,1.2-4.9,3.8-5.6,6.7c4-3.7,7.5-6.1,14.3-3.8
	c-4.9,0.2-5.3,3.4-6.7,6c5.6-4,8.5-4.2,14.2-0.5c-5-0.1-7.8,2-7.9,2c3.5,0.5,12.2,5.8,15.5,11.4c0,0-8-5.9-3.1,0.1
	c2.5,3,3.4,8.1,3.4,8.1s-5.3-8.3-2.9,0.1c1.7,6.1,0.2,10.2,0.2,10.2s-0.2-10.2-3.5,0.3C54.1,60,44.1,61.9,44.1,61.9H7.7z M25.4,25.8
	c1,1.3,3.9-1,4.1-2.1c0.2-0.9-0.4-2-1.3-2.4c-0.3-0.1-0.7-0.1-1,0.1c-0.1,0.1-0.5,1.2-0.8,1.7C25.8,24.4,25.1,25.4,25.4,25.8z"/>
</svg>
