<?xml version="1.0" encoding="utf-8"?>
<!-- Generator: Adobe Illustrator 23.0.1, SVG Export Plug-In . SVG Version: 6.00 Build 0)  -->
<svg version="1.1" id="Layer_1" xmlns="http://www.w3.org/2000/svg" xmlns:xlink="http://www.w3.org/1999/xlink" x="0px" y="0px"
	 viewBox="0 0 395.2 187.9" style="enable-background:new 0 0 395.2 187.9;" xml:space="preserve">
<style type="text/css">
	.st0{enable-background:new    ;}
	.st1{fill:#940007;}
	.st2{fill:#60a0ff;}
	.st3{fill:#ff7300;}
</style>
<title>head_1</title>
<g>
	<g id="Layer_1-2">
		<g class="st0">
			<path class="st1" d="M28,87.1c0.5-0.7,1.2-1.1,2.3-1.4l-3.9-9.9h-8.3L15,85.2c0,0.6,0.4,1.1,1.2,1.5c0.4,0.2,0.8,0.3,1.1,0.4H8.5
				c1.3-0.2,2.3-0.7,3-1.5c0.4-0.4,0.6-0.8,0.8-1.2l10.3-27.2c7,17,10.8,26.1,11.5,27.5c0.4,0.8,1.1,1.5,2.1,2
				c0.5,0.3,0.9,0.4,1.3,0.5H28z M26,74l-3.6-10.1l-3.7,10.1L26,74z"/>
		</g>
		<g class="st0">
			<path class="st1" d="M108,58.1c0.2-0.5,0-1.1-0.5-1.8c-1-1.4-3.2-2.5-6.6-3.4h22.4c-3.4,0.8-5.6,2-6.6,3.4
				c-0.5,0.7-0.7,1.3-0.5,1.8v24.2c-1,0.8-2.6,1.6-4.9,2.4c-4.6,1.6-10.1,2.4-16.5,2.4c-11.5,0-20.7-2.8-27.6-8.3
				c-7.8-6.3-11.7-15.7-11.7-28.2c-0.3-5.6,1.1-11.2,4-16.8C65.5,22.6,76.5,17,92.6,17c13,1,21.1,2,24.4,2.9l-2.4,15.5
				c-0.5-2.6-1.7-5.1-3.7-7.7c-4-5.1-9.8-7.7-17.5-7.7c-9.3,0-16.6,2.7-22,8.1c-5.4,5.5-8.2,13-8.2,22.6c0,9.2,3.7,17,11.2,23.4
				c6.9,5.9,14.5,8.8,22.8,8.8c4.6,0.2,8.2-0.9,10.8-3.3V58.1z"/>
		</g>
		<g class="st0">
			<path class="st1" d="M158.7,87.1c1.1-1.5,2.9-2.6,5.4-3.4l-9-23.3h-19.4l-7.4,22.2c0,1.3,0.9,2.5,2.7,3.5c0.9,0.5,1.8,0.8,2.7,1
				h-20.6c3-0.4,5.3-1.6,7.1-3.6c0.9-1,1.5-2,1.8-2.9l24-63.7c16.3,39.7,25.3,61.1,26.9,64.2c1,2,2.6,3.5,4.9,4.7
				c1.1,0.6,2.1,1,3,1.2H158.7z M154,56.3l-8.5-23.7l-8.7,23.6L154,56.3z"/>
		</g>
		<g class="st0">
			<path class="st1" d="M226.3,85.8L226.3,85.8L226.3,85.8l-0.3-0.3l-23.1-43.5l-4.8,35.6v2.2c0.2,1.9,1.2,3.5,3.1,4.9
				c1,0.7,1.9,1.2,2.8,1.5h-19.9c0.9-0.3,1.9-0.8,2.8-1.5c1.9-1.4,2.9-3,3.1-4.9l8-62.9l28.2,57l29.1-56.2l10.4,62.9
				c0.1,1.9,1.2,3.5,3.1,4.9c1,0.7,1.9,1.2,2.8,1.5h-19.9c0.9-0.3,1.8-0.8,2.8-1.5c1.9-1.4,2.9-3,3.1-4.9v-2.3l-8-34.8L226.3,85.8
				L226.3,85.8z"/>
		</g>
		<g class="st0">
			<path class="st1" d="M311.6,18.2l2.6-1.2l-2.6,12.8c-0.1-1.3-0.5-2.5-1.1-3.8c-1.3-2.6-3.4-3.8-6.2-3.8H291v26.2h14.7
				c2.8-0.1,5.2-0.8,7-2.3l-1.7,13.7c0-1.3-0.4-2.5-1.2-3.7c-1.5-2.5-4-3.7-7.5-3.7H291v26c0.8,1,1.8,2,3.2,2.9
				c2.8,2,5.8,2.9,9.1,2.9c3.3,0,6.3-1.5,9.1-4.6c1.4-1.6,2.5-3.1,3.3-4.6l-1.4,12.1h-37.4c1-0.3,2-0.9,3-1.6c2-1.5,3-3.3,3-5.3
				c0-3.2,0-22.3-0.1-57.2c-1-2.1-3.4-3.7-7.1-4.8H311.6z"/>
		</g>
		<g class="st0">
			<path class="st1" d="M348.8,57.2c3.5,0,6.7,1.4,9.6,4.2c3.3,3.1,4.9,6.9,4.9,11.4c0,4.4-1.7,7.9-5,10.8c-2.9,2.4-6.1,3.6-9.5,3.6
				c-3.7,0-7-1.1-10-3.2c-3.7-2.7-5.5-6.4-5.5-11.3c0-6.8,2.6-11.5,7.7-13.9C343.6,57.5,346.2,57,348.8,57.2z M337,72.1
				c0,4,1,7.2,3,9.6c1.4,1.7,3.2,2.8,5.5,3.5v-26c-2.2,0.6-4.1,1.8-5.5,3.4C338,64.9,337,68.1,337,72.1z M347.4,58.8
				c-0.3,0-0.7,0.1-1,0.2v26.5c0.3,0.1,0.7,0.1,1,0.2V58.8z M348.9,85.7c0.4,0,0.8,0,1.2-0.1V59c-0.4-0.1-0.8-0.2-1.2-0.2V85.7z
				 M351,85.4c2.3-0.5,4.1-1.5,5.5-3.1c2-2.2,3-5.4,3-9.6c0-4.2-1-7.5-3-9.9c-1.4-1.7-3.3-2.9-5.5-3.6V85.4z"/>
		</g>
		<g class="st0">
			<path class="st1" d="M375.1,70.6c1.2,0,2.2-0.4,3-1l-0.7,5.9c0-0.5-0.2-1.1-0.5-1.6c-0.6-1.1-1.7-1.6-3.2-1.6h-4.8v11.1l0,0.5
				v0.5c0.1,0.8,0.5,1.5,1.3,2.1c0.4,0.3,0.8,0.5,1.2,0.7h-8.6c0.4-0.1,0.8-0.4,1.2-0.7c0.8-0.6,1.3-1.3,1.3-2.1v-9.1h0
				c0-4.7,0-9.9,0-15.5c-0.4-0.9-1.5-1.6-3-2h15.4l1.1-0.5l-1.1,5.5c0-0.5-0.2-1.1-0.5-1.6c-0.6-1.1-1.4-1.6-2.7-1.6h-5.7v11.2
				H375.1z"/>
		</g>
		<g class="st0">
			<path class="st2" d="M15.3,164.9c0.1,1.9,1.2,3.5,3.1,4.9c1,0.7,1.9,1.2,2.9,1.5H1.2c0.9-0.3,1.9-0.8,2.8-1.5
				c1.9-1.4,3-3,3.1-4.9v-57.2C7,105.8,6,104.1,4,102.7c-1-0.7-1.9-1.2-2.8-1.5h20.1c-0.9,0.3-1.9,0.8-2.9,1.5
				c-1.9,1.4-2.9,3-3.1,4.9V164.9z"/>
		</g>
		<g class="st0">
			<path class="st2" d="M81.1,165.9c-1.1,0.9-2.9,1.8-5.3,2.7c-4.8,1.8-10.4,2.7-16.8,2.7c-0.7,0-1.5,0-2.3,0
				c-11-0.4-19.6-3.4-26.1-8.9c-7.3-6.3-11-15.5-11-27.5c-0.3-5.6,1.1-11.2,4-16.8c5.9-11.2,16.9-16.9,33.1-16.9
				c13,1,21.1,2,24.4,2.9l-2.3,15.5c-0.5-2.6-1.7-5.1-3.7-7.7c-4-5.1-9.8-7.7-17.5-7.7c-9.3,0-16.6,2.7-22,8.1
				c-5.4,5.5-8.2,13-8.2,22.6c0,9.2,3.7,17,11.2,23.4c6.9,5.9,14.5,8.8,22.8,8.8c1.6-0.1,3.6-0.7,6-1.7c4.6-2.1,8.6-5.4,12-10.1
				L81.1,165.9z"/>
		</g>
		<g class="st0">
			<path class="st2" d="M119.8,102.4l2.6-1.2l-2.6,12.8c-0.1-1.3-0.5-2.5-1.1-3.8c-1.3-2.6-3.4-3.8-6.2-3.8H99.1v26.2h14.7
				c2.8-0.1,5.2-0.8,7-2.3L119,144c0-1.3-0.4-2.5-1.2-3.7c-1.5-2.5-4-3.7-7.5-3.7H99.1v26c0.8,1,1.8,2,3.2,2.9
				c2.8,2,5.8,2.9,9.1,2.9c3.3,0,6.3-1.5,9.1-4.6c1.4-1.6,2.5-3.1,3.3-4.6l-1.4,12.1H85c1-0.3,2-0.9,3-1.6c2-1.5,3-3.3,3-5.3
				c0-3.2,0-22.3-0.1-57.2c-1-2.1-3.4-3.7-7.1-4.8H119.8z"/>
		</g>
		<g class="st0">
			<path class="st3" d="M248.7,132.6c2.8-0.1,5.2-0.8,7-2.3L254,144c0-1.3-0.4-2.5-1.2-3.7c-1.5-2.5-4-3.7-7.5-3.7h-11.2v26l0,1.1
				v1.1c0.1,1.9,1.2,3.5,3.1,4.9c1,0.7,1.9,1.2,2.8,1.5h-20.1c0.9-0.3,1.9-0.8,2.8-1.5c1.9-1.4,3-3,3.1-4.9v-21.4h0
				c0-10.9,0-23-0.1-36.3c-1-2.1-3.4-3.7-7.1-4.8h36l2.6-1.2l-2.6,12.8c-0.1-1.3-0.5-2.5-1.1-3.8c-1.3-2.6-3.4-3.8-6.2-3.8h-13.3
				v26.2H248.7z"/>
		</g>
		<g class="st0">
			<path class="st3" d="M276.9,164.9c0.1,1.9,1.2,3.5,3.1,4.9c1,0.7,1.9,1.2,2.9,1.5h-20.1c0.9-0.3,1.9-0.8,2.8-1.5
				c1.9-1.4,3-3,3.1-4.9v-57.2c-0.1-1.9-1.2-3.5-3.1-4.9c-1-0.7-1.9-1.2-2.8-1.5h20.1c-0.9,0.3-1.9,0.8-2.9,1.5
				c-1.9,1.4-2.9,3-3.1,4.9V164.9z"/>
		</g>
		<g class="st0">
			<path class="st3" d="M329.3,148.8c4,5.8,7.4,10.2,10.4,13.1c5.3,5.2,10.2,7.4,14.7,6.4c-0.2,0.5-0.8,1-1.8,1.5
				c-2,1-4.9,1.5-8.8,1.5s-8.7-3.4-14.3-10.1c-2.8-3.4-5.2-6.8-7.2-10.1c-0.9-1.6-2.4-3.2-4.5-4.8c-4.2-3.2-9.3-4.9-15.3-4.9v23.5
				c0.1,1.9,1.2,3.5,3.1,4.9c1,0.7,1.9,1.2,2.8,1.5h-20c0.9-0.3,1.9-0.8,2.8-1.5c1.9-1.4,2.9-3,3.1-4.9v-56.8
				c-0.1-1.9-1.2-3.5-3.1-4.9c-1-0.7-1.9-1.2-2.8-1.5h14c4.9-0.8,9.8-0.7,14.7,0.3c9.8,2,14.8,7.5,14.8,16.6c0.2,1.6-0.2,3.7-1,6.3
				c-1.6,5-4.8,9.7-9.7,14C323.6,141,326.3,144.3,329.3,148.8z M314.1,136.5c1.6-0.1,3.2-0.7,4.8-1.8c3.2-2.3,4.8-6.3,4.8-11.8
				c0-6.1-1.6-10.8-4.9-14.2c-2.7-2.8-5.7-4.2-9-4.2c-3.3,0-5.2,0.1-5.6,0.3c-1,0.4-1.5,1.9-1.5,4.4c0,3.6-0.1,12.8-0.3,27.5H314.1z
				"/>
			<path class="st3" d="M390.7,102.4l2.6-1.2l-2.6,12.8c-0.1-1.3-0.5-2.5-1.1-3.8c-1.3-2.6-3.4-3.8-6.2-3.8h-13.3v26.2h14.7
				c2.8-0.1,5.2-0.8,7-2.3L390,144c0-1.3-0.4-2.5-1.2-3.7c-1.5-2.5-4-3.7-7.5-3.7h-11.2v26c0.8,1,1.8,2,3.2,2.9
				c2.8,2,5.8,2.9,9.1,2.9c3.3,0,6.3-1.5,9.1-4.6c1.4-1.6,2.5-3.1,3.3-4.6l-1.4,12.1H356c1-0.3,2-0.9,3-1.6c2-1.5,3-3.3,3-5.3
				c0-3.2,0-22.3-0.1-57.2c-1-2.1-3.4-3.7-7.1-4.8H390.7z"/>
		</g>
		<g class="st0">
			<path class="st1" d="M172.2,161.1c-5.7,4.3-11.7,6.5-18.1,6.5c-4.3,0-7.9-1.3-10.5-3.8c-2.7-2.6-4-5.9-4-10
				c0-7.9,5.6-14.5,16.9-19.8c-1.7-4.4-2.6-8-2.6-10.6c0-4,1.4-7.4,4.2-10.1c2.8-2.7,6.3-4,10.5-4c6.1,0,9.2,2.7,9.2,8.1
				c0,5-4.9,10.2-14.7,15.6c0.3,0.7,0.5,1.1,0.5,1.2l1.1,2.2c0.9,1.9,1.6,3.3,2.1,4.1c4.1-4.3,10.5-6.5,19.1-6.5h5.6l2.9,0
				c4.8,0,8.3-0.6,10.3-1.8c2-1.2,3.1-3.2,3.1-6c0-1.6-0.8-3.3-2.4-4.9l4.5-4.6c1.1,1.5,1.7,3.5,1.7,5.8c0,5.2-2.2,9.3-6.6,12.4
				s-10.3,4.6-17.7,4.6h-0.7c-1.4,6.4-4.7,12.2-9.8,17.3c2.8,3.8,5.3,5.8,7.7,5.8c1.9,0,3.8-1.4,5.9-4.3c0.4,0.4,0.7,0.8,0.7,1.4
				c0,1.4-1.2,3.1-3.5,5c-2.3,1.9-4.4,2.8-6.1,2.8C178.7,167.6,175.7,165.4,172.2,161.1z M171.1,159.7l-1-1.3
				c-4.4-6.2-8.4-13.3-12-21.3l-0.7-1.6c-7.1,3.5-10.7,8.6-10.7,15.6c0,3.8,1.2,6.8,3.7,9.3c2.5,2.4,5.6,3.6,9.5,3.6
				C163.6,164,167.3,162.5,171.1,159.7z M162.3,131.5c6.4-3.8,9.6-8.1,9.6-12.9c0-1.9-0.7-3.5-2-4.9c-1.3-1.4-2.9-2-4.7-2
				c-4.1,0-6.2,2.6-6.2,7.8C159,122.2,160.1,126.3,162.3,131.5z M175.5,155.4c3.7-5.3,5.7-10.6,6.1-15.9h-1.2
				c-5.9,0-10.2,0.8-13.1,2.3c0.5,0.9,0.8,1.4,0.9,1.6l2.8,4.8C173.1,151.7,174.6,154.1,175.5,155.4z"/>
		</g>
	</g>
</g>
</svg>
