<?xml version="1.0" encoding="utf-8"?>
<!-- Generator: Adobe Illustrator 23.0.1, SVG Export Plug-In . SVG Version: 6.00 Build 0)  -->
<svg version="1.1" id="Layer_1" xmlns="http://www.w3.org/2000/svg" xmlns:xlink="http://www.w3.org/1999/xlink" x="0px" y="0px"
	 viewBox="0 0 104.8 104.8" style="enable-background:new 0 0 104.8 104.8;" xml:space="preserve">
<style type="text/css">
	.st0{fill:none;stroke:#000000;stroke-miterlimit:10;}
</style>
<g>
	<polygon points="24.1,47.6 24.3,47.6 79.2,47.6 85.1,40.7 85.1,34.1 18.2,34.1 18.2,40.7 	"/>
	<rect x="18.2" y="28.6" width="5.9" height="8.6"/>
	<rect x="79.2" y="28.6" width="5.9" height="8.6"/>
	<rect x="69" y="28.6" width="5.9" height="8.6"/>
	<rect x="28.3" y="28.6" width="5.9" height="8.6"/>
	<rect x="38.5" y="28.6" width="5.9" height="8.6"/>
	<rect x="48.7" y="28.6" width="5.9" height="8.6"/>
	<rect x="58.8" y="28.6" width="5.9" height="8.6"/>
</g>
<g>
	<line class="st0" x1="51.9" y1="6.4" x2="51.9" y2="37.9"/>
	<path d="M51.7,7.2c2.2-0.4,4.4,0.1,6.5,0.8s4.1,1.6,6.3,2c1.8,0.4,4.4-0.2,6.2-0.2c-1.4,1.4-4.8,2.6-4.8,2.6s2.4,0.9,5,1.5
		c-2,0.8-5,1-7.1,0.6C60,13.9,56,11.2,52.1,12"/>
</g>
<path d="M17.8,98.4l5.8-53.1h56l6,53.1H17.8z M60.4,98.2c0-12.7-3.9-22.9-8.6-22.9c-4.8,0-8.6,10.3-8.6,22.9H60.4z M54.2,45.6h-4.7
	v4.7h4.7V45.6z M46.8,45.6h-4.7v4.7h4.7V45.6z M39.3,45.6h-4.7v4.7h4.7V45.6z M61.7,45.6H57v4.7h4.7V45.6z M76.6,45.6h-4.7v4.7h4.7
	V45.6z M69.1,45.6h-4.7v4.7h4.7V45.6z M32.1,45.6h-4.7v4.7h4.7V45.6z"/>
<polygon points="38.6,34.1 51.7,19 64.8,34.1 "/>
</svg>
