<?xml version="1.0" encoding="utf-8"?>
<!-- Generator: Adobe Illustrator 23.0.1, SVG Export Plug-In . SVG Version: 6.00 Build 0)  -->
<svg version="1.1" id="Layer_1" xmlns="http://www.w3.org/2000/svg" xmlns:xlink="http://www.w3.org/1999/xlink" x="0px" y="0px"
	 viewBox="0 0 48.2 29.7" style="enable-background:new 0 0 48.2 29.7;" xml:space="preserve">
<style type="text/css">
	.st0{fill:none;stroke:#4762A1;stroke-width:1.0711;stroke-miterlimit:10;}
	.st1{fill:#CF884B;}
</style>
<g>
	<circle class="st0" cx="11.4" cy="16.9" r="3.1"/>
	<path class="st0" d="M13,14.2"/>
	<g>
		<line class="st0" x1="5.7" y1="7.1" x2="9.9" y2="14.2"/>
		<g>
			<line class="st0" x1="8.1" y1="6.7" x2="6.8" y2="9"/>
			<line class="st0" x1="4.2" y1="9.1" x2="6.8" y2="9"/>
		</g>
		<g>
			<line class="st0" x1="9.4" y1="8.8" x2="8.1" y2="11.1"/>
			<line class="st0" x1="5.5" y1="11.2" x2="8.1" y2="11.1"/>
		</g>
	</g>
	<g>
		<line class="st0" x1="17.1" y1="7.2" x2="13" y2="14.4"/>
		<g>
			<line class="st0" x1="18.6" y1="9.1" x2="16" y2="9.1"/>
			<line class="st0" x1="14.6" y1="6.9" x2="16" y2="9.1"/>
		</g>
		<g>
			<line class="st0" x1="17.4" y1="11.3" x2="14.8" y2="11.3"/>
			<line class="st0" x1="13.4" y1="9.1" x2="14.8" y2="11.3"/>
		</g>
	</g>
	<g>
		<line class="st0" x1="22.8" y1="16.9" x2="14.6" y2="16.9"/>
		<g>
			<line class="st0" x1="21.9" y1="19.1" x2="20.6" y2="16.9"/>
			<line class="st0" x1="21.8" y1="14.6" x2="20.6" y2="16.9"/>
		</g>
		<g>
			<line class="st0" x1="19.4" y1="19.2" x2="18.1" y2="17"/>
			<line class="st0" x1="19.3" y1="14.7" x2="18.1" y2="17"/>
		</g>
	</g>
	<g>
		<line class="st0" x1="0.1" y1="17" x2="8.3" y2="17"/>
		<g>
			<line class="st0" x1="0.9" y1="19.2" x2="2.3" y2="16.9"/>
			<line class="st0" x1="1" y1="14.6" x2="2.3" y2="16.9"/>
		</g>
		<g>
			<line class="st0" x1="3.4" y1="19.3" x2="4.8" y2="17"/>
			<line class="st0" x1="3.5" y1="14.7" x2="4.8" y2="17"/>
		</g>
	</g>
	<g>
		<line class="st0" x1="17.1" y1="26.6" x2="13" y2="19.4"/>
		<g>
			<line class="st0" x1="18.6" y1="24.7" x2="16" y2="24.7"/>
			<line class="st0" x1="14.6" y1="26.9" x2="16" y2="24.7"/>
		</g>
		<g>
			<line class="st0" x1="17.4" y1="22.5" x2="14.8" y2="22.5"/>
			<line class="st0" x1="13.4" y1="24.7" x2="14.8" y2="22.5"/>
		</g>
	</g>
	<g>
		<line class="st0" x1="5.7" y1="26.7" x2="9.8" y2="19.5"/>
		<g>
			<line class="st0" x1="8" y1="27" x2="6.7" y2="24.7"/>
			<line class="st0" x1="4.1" y1="24.6" x2="6.7" y2="24.7"/>
		</g>
		<g>
			<line class="st0" x1="9.3" y1="24.9" x2="8" y2="22.6"/>
			<line class="st0" x1="5.4" y1="22.5" x2="8.1" y2="22.6"/>
		</g>
	</g>
</g>
<path class="st1" d="M29.8,24.2c-0.9-4,1.9-8.1,1.8-9.8c-0.1-1.8-0.1-4.8-1.7-5.5c2.7,0,6.7,3.3,7.5,5.8c-1-3.5-1.3-5.5-0.1-8.8
	C38.3,3.4,40.3,2,41.9,0c-1.1,2.2-2.1,8.8,1.1,11.9c2.3,2.3,4.6,4.9,5.1,8.3c1.1,7.1-7.1,10.1-9.2,9.4c2.6-0.8,2.9-2.8,2.4-4.3
	c-1.3-4.2,1.1-5.2,1.1-5.2s-3.5,0.7-4,4.2c0.1-2.6,0.1-4.9-3.7-7.3c5.2,3.3-3.2,7.3,2,12.2C36.7,29.4,30.9,29,29.8,24.2z"/>
</svg>
