<svg xmlns="http://www.w3.org/2000/svg" viewBox="0 0 174 182.1"><defs><style>.cls-1,.cls-2{fill:#fff;stroke:#f2e4d0;stroke-miterlimit:10;}.cls-1{stroke-width:1.25px;}.cls-2{stroke-width:1.2px;}.cls-3{fill:#f2e4d0;}.cls-4{fill:#7a4e0c;}.cls-5{fill:#d8bf9e;}</style></defs><title>characters</title><g id="Layer_4" data-name="Layer 4"><ellipse class="cls-1" cx="33.6" cy="106.32" rx="7.76" ry="20.79"/><ellipse class="cls-1" cx="138.64" cy="106.32" rx="7.76" ry="20.79"/><path class="cls-2" d="M130.71,59.18,89.29,54.59a12.29,12.29,0,0,0-2.5,0l-46,4.66A11.83,11.83,0,0,0,30.25,72.3L35.5,120a30.19,30.19,0,0,0,6.07,15.15C52.89,149.88,66.66,165,83.9,166.6c19,1.83,33.63-13.58,45.76-29.34a37.08,37.08,0,0,0,7.62-19.47l3.91-45.86A11.81,11.81,0,0,0,130.71,59.18Z"/><path d="M73.36,144.32c1.58-1,4.86-1.13,6.63-1.6a26.62,26.62,0,0,1,5.6-.84,22.48,22.48,0,0,1,5.59.47,18,18,0,0,1,5.32,1.86l-5.5-.28a52.45,52.45,0,0,0-5.32,0c-1.77.09-3.54.19-5.31.37S75.22,144.14,73.36,144.32Z"/><path d="M95.46,126.21a5,5,0,0,1-1.55,1.54,4.79,4.79,0,0,1-1.77.7,9.67,9.67,0,0,1-1.88.21,5.2,5.2,0,0,1-2.09-.64,5,5,0,0,1,1.55-1.55,4.9,4.9,0,0,1,1.76-.69,9.84,9.84,0,0,1,1.88-.21A3.62,3.62,0,0,1,95.46,126.21Z"/><path d="M83.33,127.56a5.1,5.1,0,0,1-2,.9,5,5,0,0,1-1.89,0A10.8,10.8,0,0,1,77.6,128a5.11,5.11,0,0,1-1.73-1.35,5.07,5.07,0,0,1,2-.89,4.86,4.86,0,0,1,1.9,0,9.29,9.29,0,0,1,1.83.47A5.07,5.07,0,0,1,83.33,127.56Z"/><path d="M63.41,96.88a5.62,5.62,0,1,1-7.63,5.25c0-.25.31-2,.31-2.23"/><path d="M104.7,96.88a5.62,5.62,0,1,0,7.63,5.25c0-.25-.48-2.27-.48-2.52"/><path class="cls-3" d="M73.36,127.11a8.15,8.15,0,0,1-3.45,2.26,7.26,7.26,0,0,0-3.14,2,18.34,18.34,0,0,0-2.17,3.2c-.64,1.15-1.22,2.35-1.77,3.6a12.45,12.45,0,0,1,.88-4,12.68,12.68,0,0,1,2.13-3.62,6,6,0,0,1,1.76-1.35,9,9,0,0,1,2-.69A14.89,14.89,0,0,0,73.36,127.11Z"/><polygon class="cls-3" points="88.52 155.68 87.27 166.34 86.02 155.68 88.52 155.68"/><path class="cls-4" d="M75.87,95.63a29.55,29.55,0,0,1-5.34.78,50.39,50.39,0,0,1-5.21,0c-1.72-.09-3.43-.25-5.12-.48s-3.38-.54-5.05-.91l.36,0a29.71,29.71,0,0,0-6.85.09,33.51,33.51,0,0,0-3.63.65l-1.89.48c-.63.19-1.31.39-2,.56a13.38,13.38,0,0,1,2.57-3.39A15.68,15.68,0,0,1,47.25,91a17.94,17.94,0,0,1,8.61-2h0l.32,0c1.7.22,3.38.52,5.05.88s3.33.8,5,1.31a48.76,48.76,0,0,1,4.88,1.84A28.56,28.56,0,0,1,75.87,95.63Z"/><path class="cls-4" d="M91.81,95.69a36.89,36.89,0,0,1,4.86-2.31c1.61-.64,3.23-1.21,4.84-1.73s3.23-1,4.86-1.37,3.27-.8,4.82-1.13l.48-.1h.16a17.94,17.94,0,0,1,8.61,2A15.31,15.31,0,0,1,124,93.56,13.42,13.42,0,0,1,126.55,97c-.7-.17-1.37-.38-2-.57l-1.9-.48c-1.24-.28-2.44-.5-3.62-.65a29.8,29.8,0,0,0-6.86-.09l.64-.1a41,41,0,0,1-5.16,1.23,43.42,43.42,0,0,1-5.22.59,37.47,37.47,0,0,1-5.29-.13A24.08,24.08,0,0,1,91.81,95.69Z"/><path class="cls-5" d="M33.06,36.35C36.53,32.25,40,28.14,44.18,25c4.75-3.53,10.13-5.8,15.48-8,9.93-4,20.24-7.44,30.77-6.9,30.33,1.56,48.75,30.11,51.25,33.81,7.11,10.53,9.17,31.86,9.16,38.16,0,16.33-9.6,32.37-14.92,49.42l-.45-7.58-2.36,3a172.69,172.69,0,0,1,.41-27.48l0,6.44a79.83,79.83,0,0,0-3.67-23.75c-.38,1.33-.42,8.57-.79,9.9-.71-5.65-1.74-17.21-2.44-22.86-.08,2.52-.33,17.54-1.34,19.79.32-5.28-3.42-18.7-4.27-23.91-5.42,6.73-2.59,12.16-5.91,20.44-2-5.57-6.48-12.81-7.37-18.72a102.75,102.75,0,0,0-1.67,13.45c-1.32-1.76-2.35-9.87-3.66-11.63-1.29,1.76-2.32,14.66-2.71,16.9-1.15-.09.27-22-.88-22.13-.66,2.68-3.54,22.94-3.21,25.7-.18-.7-1.25-17.46-1.73-17s-.48,17.95-.59,18.67a55.66,55.66,0,0,1-.26-33.9,69.15,69.15,0,0,0-9.21,35c-4.56-6.51-5.65-15.19-6.58-23.42L75.64,85.63A40,40,0,0,1,75,63c-2,9.89-4.88,12.65-6.93,22.54-2.2-11.91-2.35-17-2-29.15-1,7.5-4.18,19.55-4.67,27.1a61.7,61.7,0,0,1-1.79-21.34C57.87,66.58,55.06,79,53.3,83.48c0,0-3.17-15.4-5.71-17.44-.27,1.45.31,15.95,0,17.39-1.06-1.34-5.65-15-5.29-16.79-3.3,1.31-2.07,3.89-2.6,7.79s.19,7.86.92,11.72l-2.41-2.68-1.12,19.82c-.61,10.95,4.61,26.28,7.18,36.87,0,0-7.31-12.15-8.81-20.14-1.56,5.67,2.73,8,3.12,13.9C22.44,114.88,13.79,59.07,33.06,36.35Z"/></g></svg>