<?xml version="1.0" encoding="utf-8"?>
<!-- Generator: Adobe Illustrator 23.0.1, SVG Export Plug-In . SVG Version: 6.00 Build 0)  -->
<svg version="1.1" id="Layer_1" xmlns="http://www.w3.org/2000/svg" xmlns:xlink="http://www.w3.org/1999/xlink" x="0px" y="0px"
	 viewBox="0 0 157 173.2" style="enable-background:new 0 0 157 173.2;" xml:space="preserve">
<style type="text/css">
	.st0{fill:none;}
	.st1{fill:none;stroke:#000000;stroke-width:2;stroke-linecap:round;stroke-miterlimit:10;}
	.st2{fill:none;stroke:#000000;stroke-width:1.9578;stroke-linecap:round;stroke-miterlimit:10;}
</style>
<path class="st0" d="M-61.7,14.2c0.1,0,0.3,0,0.4,0"/>
<g>
	<path class="st1" d="M83.9,80.8c8.4,2.5,16.9,2.4,25.4,1.1"/>
	<path d="M91.4,83.2c0.4,2.4,1.8,4.6,3.7,4.8s4.1-2.6,3.5-4.9c-0.3-0.1-0.7-0.3-1-0.4"/>
	<path class="st1" d="M87.1,88.6c5.1-1.3,10.6-1.5,15.8-0.5"/>
</g>
<path class="st2" d="M32.1,98c6.6,23.8,20.9,50.2,48.4,50.2c27.5,0,38.4-33.6,41.2-52.7"/>
<g>
	<path class="st1" d="M71,81.4c-8.4,2.5-16.9,2.4-25.4,1.1"/>
	<path d="M63.5,83.7c-0.4,2.4-1.8,4.6-3.7,4.8s-4.1-2.6-3.5-4.9c0.3-0.1,0.7-0.3,1-0.4"/>
	<path class="st1" d="M67.8,89.1c-5.1-1.3-10.6-1.5-15.8-0.5"/>
</g>
<path class="st1" d="M67.1,122c6.9-2.4,14.6-2.6,21.6-0.6"/>
<g>
	<path d="M40.3,119.8c6.6,4.8,12.5,10.1,18.8,14.2c6.2,4.2,12.7,7,19.2,7c0.4,0,0.8,0.1,1.2,0l1.2-0.1c0.4,0,0.8,0,1.2-0.1l1.2-0.2
		c0.4-0.1,0.8-0.1,1.2-0.2l1.2-0.3l1.2-0.3c0.4-0.2,0.8-0.3,1.2-0.5c3.2-1.2,6.3-3,9.4-5c6.2-4.1,12.1-9.6,18.6-14.4
		c-1.7,3.7-3.7,7.2-5.9,10.7c-2.3,3.4-4.8,6.6-7.9,9.6c-3,3-6.5,5.6-10.6,7.6c-0.5,0.2-1,0.5-1.5,0.7c-0.5,0.2-1.1,0.4-1.6,0.6
		l-1.6,0.6c-0.6,0.2-1.1,0.3-1.7,0.4l-1.7,0.4c-0.6,0.1-1.2,0.1-1.7,0.2l-1.7,0.2c-0.6,0.1-1.2,0-1.8,0c-1.2,0-2.3,0-3.5-0.3
		c-1.2-0.2-2.3-0.3-3.4-0.6l-1.7-0.4c-0.5-0.2-1.1-0.4-1.6-0.6l-1.6-0.6c-0.5-0.2-1-0.5-1.5-0.7c-4-2-7.6-4.6-10.6-7.5
		c-3-2.9-5.7-6.2-8-9.5C44.1,127,42.1,123.6,40.3,119.8z"/>
</g>
<g>
	<path d="M54.7,122.6c1.7-4.2,5.2-7.7,9.3-9.9c4.1-2.2,8.8-3.3,13.5-3.4c4.7-0.1,9.4,0.9,13.6,3c4.2,2.1,7.8,5.4,9.7,9.5
		c-3.3-3.1-7-5.2-11-6.6c-4-1.4-8.1-2-12.3-1.9c-4.2,0.1-8.3,0.8-12.2,2.3C61.4,117.1,57.8,119.4,54.7,122.6z"/>
</g>
<g>
	<path d="M78.2,128.1c0.6,1.8,1.1,3.5,1.6,5.3l0.6,2.6c0.2,0.9,0.4,1.8,0.5,2.6c0.2,0.9,0.5,1.8,0.7,2.6c0.3,0.9,0.3,1.8,0,2.6
		c-0.2,0.9-0.6,1.8-1.1,2.6c-0.6,0.9-1.2,1.8-2.4,2.6c-0.2,0.2-0.6,0.2-0.8,0c-1.1-0.9-1.8-1.8-2.4-2.6c-0.5-0.9-0.9-1.8-1.1-2.6
		c-0.2-0.9-0.2-1.8,0-2.6c0.3-0.9,0.6-1.8,0.7-2.6c0.2-0.9,0.3-1.8,0.5-2.6l0.6-2.6c0.5-1.8,0.9-3.5,1.6-5.3
		c0.1-0.2,0.3-0.3,0.5-0.3C78,127.9,78.1,127.9,78.2,128.1z"/>
</g>
<g>
	<path d="M82.9,103.6c-0.3,0.4-0.6,0.6-0.9,0.8c-0.3,0.1-0.6,0.2-0.9,0.2c-0.3,0-0.6-0.1-0.9-0.2c-0.3-0.2-0.6-0.4-0.9-0.8
		c0.3-0.4,0.6-0.6,0.9-0.8c0.3-0.1,0.6-0.2,0.9-0.2c0.3,0,0.6,0.1,0.9,0.2C82.3,103,82.6,103.2,82.9,103.6z"/>
</g>
<g>
	<path d="M75.9,103.6c-0.3,0.4-0.6,0.6-0.9,0.8c-0.3,0.1-0.6,0.2-0.9,0.2c-0.3,0-0.6-0.1-0.9-0.2c-0.3-0.2-0.6-0.4-0.9-0.8
		c0.3-0.4,0.6-0.6,0.9-0.8c0.3-0.1,0.6-0.2,0.9-0.2c0.3,0,0.6,0.1,0.9,0.2C75.3,103,75.6,103.2,75.9,103.6z"/>
</g>
<path d="M95.8,54.7c-2.6,2.5-5.7,4-8.8,5.9c-2.1,1.2-4.2,3.5-4,6.1c0.1,2.4,2.5,5.2,5.1,4.1c0.5,2.4-3,3.7-5.4,2.9
	c-6-2-8.2-10.8-3.9-15.4c1.6-1.7,4.1-3.4,3.8-5.7c-4,3.1-9.7,2.8-14.1,5.4c-4.4,2.5-6.9,8-5.9,12.9c-2.7-1.6-4-4.8-4.2-7.9
	c-0.2-3.1,0.7-6.2,1.5-9.2c0,4.8-5.1,9.3-10,9.5c-17.9,0.6-17.9,38-1.6,32.3c0,0-1.8,5.9-9.4,5.8c-8-0.1-0.9,10.4,1.6,15.7
	c11.7,25.1,3,54.2,3,54.2s1.1-23-9.8-24.5c0,0-1,3.1-1.6,4.6c-0.9,2.2-1.4,4.4-0.5,6.7c-1.8-1.9-2.7-4.7-2.7-7.4
	c0-2.1,0.7-4.2,0.7-6.3c-0.1-7.3-7.7-13.6-11.1-19.7c-4.3-7.6-11.9-20.1-3.3-26c-5.5,3.2-9.8,8.4-11.8,14.5
	c-1.8-4.7-0.4-9.9,1.7-14.5c2.3-5.2,5.1-10,5.4-15.7c0.6-10.7-2.3-19.4,2.6-29.7c9.8-20.6,8.3-23.5,5.3-22.1
	c-1.2,0.5,13.4-15.4,24.6-5.9C48.1,29.9,61.4,9.8,81.1,8c-11.2,5,3.6,19.4,10.4,7c2.4-7.9-4.6-12.2-4.6-12.2s12.2,3.8,13.9,15.3
	c-0.6-4.1,5.3-8.1,8.8-8.1c5-0.1,7.1,4.6,7,9c-0.2-1.3-0.7-2.6-1.6-3.6c-1-1.1-2.6-1.7-4-1.2c-1.8,0.6-2.8,2.5-3.1,4.4
	c-0.1,0.7-0.2,1.5,0,2.2c0.5,1.5,2.2,2.2,3.7,2.8c4.3,1.5,8.5,3.7,12,6.8c3.9,3.4,6.2,7.6,8.6,12.1c1.6,2.9,4.1,4.3,6.9,5.7
	c2.2,1,4.3,2.3,6,4.1c1.1,1.2,2.5,3,2.4,4.8c0,0-4.9-4.6-7,0.9c-2.2,5.7,4.9,15.1,5.2,21.1c0.2,5.6-1,11.2-0.1,16.8
	c0.3,2,0.9,3.6,2.8,4.6c1.2,0.6,5.6,0.7,6.5-0.5c-5.1,7.7-12.5,4.7-14.2,2.6c-0.2,5.4-5.5,14.5-7.5,19.4
	c-5.7,13.6-9.1,28.1-10.1,42.8c-1.1-3.2-2.5-6.2-4.2-9.1c-1.9,3.6-5.2,6.4-9,7.9c4.6-7.3-0.2-26.6,1-35.2
	c1.5-10.3,6.1-19.9,7.8-30.3c3.7-23.1-1.7-28.8-1.7-28.8c-2.5,3.8-7.6,3.9-7.6,3.9s5.1-12.9-9.3-25.6c1.5,0.6-2.2,5.1-2.8,5.8
	C96.8,53.7,96.3,54.3,95.8,54.7z"/>
</svg>
