<svg id="Layer_1" data-name="Layer 1" xmlns="http://www.w3.org/2000/svg" viewBox="0 0 174 182.1"><defs><style>.cls-1{fill:#fff;}.cls-2{fill:none;stroke:#000;stroke-linecap:round;stroke-miterlimit:10;stroke-width:2.15px;}</style></defs><title>characters</title><path class="cls-1" d="M136.84,64,85.76,31.67,35,57.05l7.53,63.45C53.39,135,66.72,152.76,84.36,154.37c20,1.83,34.41-17.85,46.24-33.87Z"/><path d="M93.25,83.77c2.25.43,4.51.86,6.77,1.08s4.52.32,6.77.32,4.52-.32,6.78-.32a49.9,49.9,0,0,1,6.88.21.11.11,0,0,1,0,.22A25.62,25.62,0,0,1,113.68,87a38,38,0,0,1-7,0c-2.37-.22-4.63-.54-6.88-1a47.65,47.65,0,0,1-6.67-1.94A.1.1,0,0,1,93,84C93.14,83.77,93.14,83.77,93.25,83.77Z"/><path d="M101.2,86.35c.43,2.58,1.94,5,4,5.16s4.41-2.79,3.77-5.27c-.33-.1-.76-.32-1.08-.43"/><path d="M96.58,92.16a14.7,14.7,0,0,1,4.09-1.61,28.82,28.82,0,0,1,4.3-.65,20.52,20.52,0,0,1,4.41.32,12.27,12.27,0,0,1,4.19,1.4c-1.51.22-2.9.22-4.3.32l-4.2.11-4.19.11A28,28,0,0,1,96.58,92.16Z"/><path d="M79.37,84.63a47.91,47.91,0,0,1-6.66,1.94c-2.26.43-4.63.75-6.89,1a25.57,25.57,0,0,1-7,0,28.89,28.89,0,0,1-6.77-1.73.1.1,0,0,1-.11-.1.11.11,0,0,1,.11-.11c2.36-.22,4.62-.22,6.88-.22s4.52.33,6.78.33a46.59,46.59,0,0,0,6.77-.33,48.24,48.24,0,0,0,6.78-1.07c.1,0,.1,0,.1.11Z"/><path d="M71.2,87c-.43,2.58-1.94,4.94-4,5.16s-4.41-2.8-3.76-5.27c.32-.11.75-.32,1.07-.43"/><path d="M75.82,92.8c-1.5.11-2.9,0-4.3,0l-4.19-.1-4.2-.11a30.93,30.93,0,0,1-4.3-.32,13.51,13.51,0,0,1,4.2-1.4,19.39,19.39,0,0,1,4.41-.32,14.4,14.4,0,0,1,4.3.64A13.53,13.53,0,0,1,75.82,92.8Z"/><path class="cls-2" d="M75.07,128.08a38.94,38.94,0,0,1,23.23-.65"/><path d="M45.28,124.74C52.38,129.9,58.73,135.6,65.5,140s13.66,7.53,20.65,7.53a5.06,5.06,0,0,0,1.29,0l1.29-.11a5.62,5.62,0,0,0,1.29-.1l1.29-.22c.43-.11.86-.11,1.29-.21l1.29-.33,1.29-.32c.43-.21.86-.32,1.29-.54a54,54,0,0,0,10.11-5.37c6.67-4.41,13-10.33,20-15.49a101.88,101.88,0,0,1-6.34,11.51,64.18,64.18,0,0,1-8.5,10.32,42,42,0,0,1-11.4,8.17c-.53.22-1.07.54-1.61.76l-1.72.64-1.72.65a12.12,12.12,0,0,1-1.83.43l-1.83.43c-.64.1-1.29.1-1.83.21l-1.82.22a12.56,12.56,0,0,1-1.94,0,14.51,14.51,0,0,1-3.76-.33,36.16,36.16,0,0,1-3.66-.64l-1.83-.43c-.54-.22-1.18-.43-1.72-.65l-1.72-.64c-.54-.22-1.07-.54-1.61-.75a46.37,46.37,0,0,1-11.4-8.07,69.44,69.44,0,0,1-8.6-10.22A104.06,104.06,0,0,1,45.28,124.74Z"/><path d="M61.74,128.83a21.85,21.85,0,0,1,10-10.65,32.23,32.23,0,0,1,14.52-3.65,31.22,31.22,0,0,1,14.62,3.22A22.34,22.34,0,0,1,111.31,128a33,33,0,0,0-11.83-7.1,37,37,0,0,0-13.22-2,39,39,0,0,0-13.12,2.47A29.71,29.71,0,0,0,61.74,128.83Z"/><path d="M87,134.64c.64,1.93,1.18,3.76,1.72,5.7l.64,2.79c.22,1,.43,1.94.54,2.8s.54,1.93.75,2.79a4.08,4.08,0,0,1,0,2.8,9.89,9.89,0,0,1-3.76,5.59.64.64,0,0,1-.86,0,14.9,14.9,0,0,1-2.58-2.79,11.79,11.79,0,0,1-1.18-2.8,6,6,0,0,1,0-2.8,15.74,15.74,0,0,0,.75-2.79c.21-1,.32-1.94.54-2.8l.64-2.79a58,58,0,0,1,1.72-5.7.6.6,0,0,1,.54-.33C86.9,134.42,87,134.53,87,134.64Z"/><path d="M92.06,108.4a3.43,3.43,0,0,1-1,.86,2.32,2.32,0,0,1-1.93,0,3.57,3.57,0,0,1-1-.86,3.41,3.41,0,0,1,1-.86,2.23,2.23,0,0,1,1.93,0A3.28,3.28,0,0,1,92.06,108.4Z"/><path d="M84.53,108.4a3.55,3.55,0,0,1-1,.86,3.13,3.13,0,0,1-1,.21,3.07,3.07,0,0,1-1-.21,3.72,3.72,0,0,1-1-.86,3.55,3.55,0,0,1,1-.86,3.09,3.09,0,0,1,1-.22,3.16,3.16,0,0,1,1,.22A3.39,3.39,0,0,1,84.53,108.4Z"/><path d="M105.93,55.81c-2.79,2.69-6.12,4.3-9.46,6.35-2.26,1.29-4.52,3.76-4.3,6.56.11,2.58,2.69,5.59,5.48,4.41.54,2.58-3.22,4-5.8,3.11C85.4,74.09,83,64.63,87.65,59.68c1.72-1.83,4.41-3.65,4.09-6.13-4.3,3.34-10.43,3-15.16,5.81a13.41,13.41,0,0,0-6.35,13.87c-2.9-1.72-4.3-5.16-4.51-8.49s.75-6.67,1.61-9.9c0,5.17-5.49,10-10.75,10.22-19.25.65-19.25,40.86-1.73,34.73,0,0-1.93,6.35-10.1,6.24-8.61-.11-1,11.19,1.72,16.88,12.58,27,3.22,58.29,3.22,58.29s1.19-24.73-10.54-26.35c0,0-1.07,3.34-1.72,5-1,2.37-1.5,4.73-.53,7.21a11.72,11.72,0,0,1-2.91-8c0-2.26.76-4.52.76-6.78-.11-7.85-8.29-14.62-11.94-21.18-4.63-8.18-12.8-21.62-3.55-28A28.49,28.49,0,0,0,6.57,118.72c-1.94-5-.43-10.65,1.83-15.59,2.47-5.59,5.48-10.76,5.81-16.89.64-11.5-2.48-20.86,2.79-31.93C27.54,32.15,25.93,29,22.7,30.54,21.41,31.08,37.11,14,49.16,24.2c5.48,4.94,19.78-16.67,41-18.61C78.08,11,94,26.45,101.31,13.12c2.58-8.5-5-13.12-5-13.12s13.12,4.09,15,16.45c-.64-4.41,5.7-8.71,9.46-8.71,5.38-.1,7.64,4.95,7.53,9.68a7.41,7.41,0,0,0-1.72-3.87,4.12,4.12,0,0,0-4.3-1.29c-1.94.64-3,2.69-3.33,4.73a5.74,5.74,0,0,0,0,2.37c.53,1.61,2.36,2.36,4,3a38.52,38.52,0,0,1,12.9,7.31c4.19,3.66,6.67,8.17,9.25,13,1.72,3.12,4.41,4.63,7.42,6.13A20.52,20.52,0,0,1,159,53.23c1.18,1.29,2.69,3.23,2.58,5.16,0,0-5.27-4.94-7.53,1-2.36,6.13,5.27,16.24,5.6,22.69.21,6-1.08,12-.11,18.07.32,2.15,1,3.87,3,4.94,1.29.65,6,.76,7-.53-5.49,8.28-13.44,5-15.27,2.79-.22,5.81-5.92,15.59-8.07,20.86a144.74,144.74,0,0,0-10.86,46,54.29,54.29,0,0,0-4.51-9.79,18.74,18.74,0,0,1-9.68,8.5c4.94-7.85-.22-28.61,1.07-37.85,1.62-11.08,6.56-21.4,8.39-32.59,4-24.84-1.83-31-1.83-31-2.69,4.09-8.17,4.2-8.17,4.2s5.48-13.88-10-27.53c1.61.64-2.37,5.48-3,6.23A9.63,9.63,0,0,0,105.93,55.81Z"/></svg>