<?xml version="1.0" encoding="utf-8"?>
<!-- Generator: Adobe Illustrator 23.0.1, SVG Export Plug-In . SVG Version: 6.00 Build 0)  -->
<svg version="1.1" id="Layer_1" xmlns="http://www.w3.org/2000/svg" xmlns:xlink="http://www.w3.org/1999/xlink" x="0px" y="0px"
	 viewBox="0 0 1200 1200" style="enable-background:new 0 0 1200 1200;" xml:space="preserve">
<style type="text/css">
	.st0{fill:#31333A;}
	.st1{enable-background:new    ;}
	.st2{fill:#9B4041;}
	.st3{fill:#4862A2;}
	.st4{fill:#CF884C;}
</style>
<rect x="0.1" class="st0" width="1199.8" height="1199.8"/>
<image style="overflow:visible;opacity:0.5;" width="853" height="853" xlink:href="1A7C462D98DBDD30.jpg"  transform="matrix(1.4082 0 0 1.4082 -1.105 -1.105)">
</image>
<g>
	<g id="Layer_1-2">
		<g class="st1">
			<path class="st2" d="M255.1,578.9c1-1.4,2.4-2.2,4.6-2.8l-7.9-20h-16.7l-6.2,18.9c0,1.2,0.8,2.2,2.4,3c0.8,0.4,1.6,0.6,2.2,0.8
				h-17.7c2.6-0.4,4.6-1.4,6-3c0.8-0.8,1.2-1.6,1.6-2.4l20.8-54.8c14.1,34.3,21.8,52.6,23.2,55.4c0.8,1.6,2.2,3,4.2,4
				c1,0.6,1.8,0.8,2.6,1h-19.1V578.9z M251.1,552.5l-7.3-20.4l-7.5,20.4H251.1z"/>
		</g>
		<g class="st1">
			<path class="st2" d="M416.4,520.5c0.4-1,0-2.2-1-3.6c-2-2.8-6.4-5-13.3-6.9h45.1c-6.9,1.6-11.3,4-13.3,6.9c-1,1.4-1.4,2.6-1,3.6
				v48.8c-2,1.6-5.2,3.2-9.9,4.8c-9.3,3.2-20.4,4.8-33.3,4.8c-23.2,0-41.7-5.6-55.6-16.7c-15.7-12.7-23.6-31.6-23.6-56.8
				c-0.6-11.3,2.2-22.6,8.1-33.9c12.1-22.6,34.3-33.9,66.7-33.9c26.2,2,42.5,4,49.2,5.8l-4.8,31.2c-1-5.2-3.4-10.3-7.5-15.5
				c-8.1-10.3-19.8-15.5-35.3-15.5c-18.7,0-33.5,5.4-44.3,16.3c-10.9,11.1-16.5,26.2-16.5,45.5c0,18.5,7.5,34.3,22.6,47.2
				c13.9,11.9,29.2,17.7,45.9,17.7c9.3,0.4,16.5-1.8,21.8-6.7V520.5z"/>
		</g>
		<g class="st1">
			<path class="st2" d="M518.5,578.9c2.2-3,5.8-5.2,10.9-6.9l-18.1-47h-39.1l-14.9,44.7c0,2.6,1.8,5,5.4,7.1c1.8,1,3.6,1.6,5.4,2
				h-41.5c6-0.8,10.7-3.2,14.3-7.3c1.8-2,3-4,3.6-5.8L493,437.4c32.9,80,51,123.1,54.2,129.4c2,4,5.2,7.1,9.9,9.5
				c2.2,1.2,4.2,2,6,2.4h-44.5V578.9z M509.1,516.9l-17.1-47.8l-17.5,47.6L509.1,516.9z"/>
		</g>
		<g class="st1">
			<path class="st2" d="M654.8,576.3L654.8,576.3L654.8,576.3l-0.6-0.6L607.6,488l-9.7,71.7v4.4c0.4,3.8,2.4,7.1,6.2,9.9
				c2,1.4,3.8,2.4,5.6,3h-40.1c1.8-0.6,3.8-1.6,5.6-3c3.8-2.8,5.8-6,6.2-9.9l16.1-126.8l56.8,114.9l58.6-113.3l21,126.8
				c0.2,3.8,2.4,7.1,6.2,9.9c2,1.4,3.8,2.4,5.6,3H706c1.8-0.6,3.6-1.6,5.6-3c3.8-2.8,5.8-6,6.2-9.9v-4.6l-16.1-70.1L654.8,576.3
				L654.8,576.3z"/>
		</g>
		<g class="st1">
			<path class="st2" d="M826.7,440.1l5.2-2.4l-5.2,25.8c-0.2-2.6-1-5-2.2-7.7c-2.6-5.2-6.9-7.7-12.5-7.7h-26.8v52.8h29.6
				c5.6-0.2,10.5-1.6,14.1-4.6l-3.4,27.6c0-2.6-0.8-5-2.4-7.5c-3-5-8.1-7.5-15.1-7.5h-22.8v52.4c1.6,2,3.6,4,6.4,5.8
				c5.6,4,11.7,5.8,18.3,5.8c6.7,0,12.7-3,18.3-9.3c2.8-3.2,5-6.2,6.7-9.3l-2.8,24.4h-75.4c2-0.6,4-1.8,6-3.2c4-3,6-6.7,6-10.7
				c0-6.4,0-44.9-0.2-115.3c-2-4.2-6.9-7.5-14.3-9.7C754.3,440.1,826.7,440.1,826.7,440.1z"/>
		</g>
		<g class="st1">
			<path class="st2" d="M901.7,518.7c7.1,0,13.5,2.8,19.3,8.5c6.7,6.2,9.9,13.9,9.9,23c0,8.9-3.4,15.9-10.1,21.8
				c-5.8,4.8-12.3,7.3-19.1,7.3c-7.5,0-14.1-2.2-20.2-6.4c-7.5-5.4-11.1-12.9-11.1-22.8c0-13.7,5.2-23.2,15.5-28
				C891.2,519.3,896.4,518.3,901.7,518.7z M877.9,548.7c0,8.1,2,14.5,6,19.3c2.8,3.4,6.4,5.6,11.1,7.1v-52.4
				c-4.4,1.2-8.3,3.6-11.1,6.9C879.9,534.2,877.9,540.6,877.9,548.7z M898.8,521.9c-0.6,0-1.4,0.2-2,0.4v53.4c0.6,0.2,1.4,0.2,2,0.4
				V521.9z M901.9,576.1c0.8,0,1.6,0,2.4-0.2v-53.6c-0.8-0.2-1.6-0.4-2.4-0.4V576.1z M906.1,575.5c4.6-1,8.3-3,11.1-6.2
				c4-4.4,6-10.9,6-19.3s-2-15.1-6-20c-2.8-3.4-6.7-5.8-11.1-7.3V575.5z"/>
		</g>
		<g class="st1">
			<path class="st2" d="M954.7,545.7c2.4,0,4.4-0.8,6-2l-1.4,11.9c0-1-0.4-2.2-1-3.2c-1.2-2.2-3.4-3.2-6.4-3.2h-9.7v22.4v1v1
				c0.2,1.6,1,3,2.6,4.2c0.8,0.6,1.6,1,2.4,1.4h-17.3c0.8-0.2,1.6-0.8,2.4-1.4c1.6-1.2,2.6-2.6,2.6-4.2v-18.3l0,0c0-9.5,0-20,0-31.2
				c-0.8-1.8-3-3.2-6-4h31l2.2-1l-2.2,11.1c0-1-0.4-2.2-1-3.2c-1.2-2.2-2.8-3.2-5.4-3.2H942v22.6h12.7V545.7z"/>
		</g>
		<g class="st1">
			<path class="st3" d="M229.5,735.7c0.2,3.8,2.4,7.1,6.2,9.9c2,1.4,3.8,2.4,5.8,3h-40.5c1.8-0.6,3.8-1.6,5.6-3c3.8-2.8,6-6,6.2-9.9
				V620.4c-0.2-3.8-2.2-7.3-6.2-10.1c-2-1.4-3.8-2.4-5.6-3h40.5c-1.8,0.6-3.8,1.6-5.8,3c-3.8,2.8-5.8,6-6.2,9.9
				C229.5,620.2,229.5,735.7,229.5,735.7z"/>
		</g>
		<g class="st1">
			<path class="st3" d="M362.2,737.7c-2.2,1.8-5.8,3.6-10.7,5.4c-9.7,3.6-21,5.4-33.9,5.4c-1.4,0-3,0-4.6,0
				c-22.2-0.8-39.5-6.9-52.6-17.9c-14.7-12.7-22.2-31.2-22.2-55.4c-0.6-11.3,2.2-22.6,8.1-33.9c11.9-22.6,34.1-34.1,66.7-34.1
				c26.2,2,42.5,4,49.2,5.8l-4.6,31.2c-1-5.2-3.4-10.3-7.5-15.5c-8.1-10.3-19.8-15.5-35.3-15.5c-18.7,0-33.5,5.4-44.3,16.3
				c-10.9,11.1-16.5,26.2-16.5,45.5c0,18.5,7.5,34.3,22.6,47.2c13.9,11.9,29.2,17.7,45.9,17.7c3.2-0.2,7.3-1.4,12.1-3.4
				c9.3-4.2,17.3-10.9,24.2-20.4L362.2,737.7z"/>
		</g>
		<g class="st1">
			<path class="st3" d="M440.2,609.8l5.2-2.4l-5.2,25.8c-0.2-2.6-1-5-2.2-7.7c-2.6-5.2-6.9-7.7-12.5-7.7h-27v52.8h29.6
				c5.6-0.2,10.5-1.6,14.1-4.6l-3.6,27.6c0-2.6-0.8-5-2.4-7.5c-3-5-8.1-7.5-15.1-7.5h-22.6v52.4c1.6,2,3.6,4,6.4,5.8
				c5.6,4,11.7,5.8,18.3,5.8c6.7,0,12.7-3,18.3-9.3c2.8-3.2,5-6.2,6.7-9.3l-2.8,24.4H370c2-0.6,4-1.8,6-3.2c4-3,6-6.7,6-10.7
				c0-6.4,0-44.9-0.2-115.3c-2-4.2-6.9-7.5-14.3-9.7L440.2,609.8L440.2,609.8z"/>
		</g>
		<g class="st1">
			<path class="st4" d="M699.9,670.6c5.6-0.2,10.5-1.6,14.1-4.6l-3.4,27.6c0-2.6-0.8-5-2.4-7.5c-3-5-8.1-7.5-15.1-7.5h-22.6v52.4
				v2.2v2.2c0.2,3.8,2.4,7.1,6.2,9.9c2,1.4,3.8,2.4,5.6,3h-40.5c1.8-0.6,3.8-1.6,5.6-3c3.8-2.8,6-6,6.2-9.9v-43.1l0,0
				c0-22,0-46.4-0.2-73.2c-2-4.2-6.9-7.5-14.3-9.7h72.6l5.2-2.4l-5.2,25.8c-0.2-2.6-1-5-2.2-7.7c-2.6-5.2-6.9-7.7-12.5-7.7h-26.8
				v52.8h29.6V670.6z"/>
		</g>
		<g class="st1">
			<path class="st4" d="M756.8,735.7c0.2,3.8,2.4,7.1,6.2,9.9c2,1.4,3.8,2.4,5.8,3h-40.5c1.8-0.6,3.8-1.6,5.6-3c3.8-2.8,6-6,6.2-9.9
				V620.4c-0.2-3.8-2.4-7.1-6.2-9.9c-2-1.4-3.8-2.4-5.6-3h40.5c-1.8,0.6-3.8,1.6-5.8,3c-3.8,2.8-5.8,6-6.2,9.9V735.7z"/>
		</g>
		<g class="st1">
			<path class="st4" d="M862.4,703.3c8.1,11.7,14.9,20.6,21,26.4c10.7,10.5,20.6,14.9,29.6,12.9c-0.4,1-1.6,2-3.6,3
				c-4,2-9.9,3-17.7,3c-7.9,0-17.5-6.9-28.8-20.4c-5.6-6.9-10.5-13.7-14.5-20.4c-1.8-3.2-4.8-6.4-9.1-9.7
				c-8.5-6.4-18.7-9.9-30.8-9.9v47.4c0.2,3.8,2.4,7.1,6.2,9.9c2,1.4,3.8,2.4,5.6,3h-40.3c1.8-0.6,3.8-1.6,5.6-3
				c3.8-2.8,5.8-6,6.2-9.9V621.2c-0.2-3.8-2.4-7.1-6.2-9.9c-2-1.4-3.8-2.4-5.6-3h28.2c9.9-1.6,19.8-1.4,29.6,0.6
				c19.8,4,29.8,15.1,29.8,33.5c0.4,3.2-0.4,7.5-2,12.7c-3.2,10.1-9.7,19.5-19.5,28.2C850.9,687.6,856.3,694.2,862.4,703.3z
				 M831.7,678.5c3.2-0.2,6.4-1.4,9.7-3.6c6.4-4.6,9.7-12.7,9.7-23.8c0-12.3-3.2-21.8-9.9-28.6c-5.4-5.6-11.5-8.5-18.1-8.5
				c-6.7,0-10.5,0.2-11.3,0.6c-2,0.8-3,3.8-3,8.9c0,7.3-0.2,25.8-0.6,55.4h23.6V678.5z"/>
			<path class="st4" d="M986.1,609.8l5.2-2.4l-5.2,25.8c-0.2-2.6-1-5-2.2-7.7c-2.6-5.2-6.9-7.7-12.5-7.7h-26.8v52.8h29.6
				c5.6-0.2,10.5-1.6,14.1-4.6l-3.6,27.6c0-2.6-0.8-5-2.4-7.5c-3-5-8.1-7.5-15.1-7.5h-22.6v52.4c1.6,2,3.6,4,6.4,5.8
				c5.6,4,11.7,5.8,18.3,5.8c6.7,0,12.7-3,18.3-9.3c2.8-3.2,5-6.2,6.7-9.3l-2.8,24.4h-75.4c2-0.6,4-1.8,6-3.2c4-3,6-6.7,6-10.7
				c0-6.4,0-44.9-0.2-115.3c-2-4.2-6.9-7.5-14.3-9.7L986.1,609.8L986.1,609.8z"/>
		</g>
		<g class="st1">
			<path class="st2" d="M545.8,728.1c-11.5,8.7-23.6,13.1-36.5,13.1c-8.7,0-15.9-2.6-21.2-7.7c-5.4-5.2-8.1-11.9-8.1-20.2
				c0-15.9,11.3-29.2,34.1-39.9c-3.4-8.9-5.2-16.1-5.2-21.4c0-8.1,2.8-14.9,8.5-20.4s12.7-8.1,21.2-8.1c12.3,0,18.5,5.4,18.5,16.3
				c0,10.1-9.9,20.6-29.6,31.4c0.6,1.4,1,2.2,1,2.4l2.2,4.4c1.8,3.8,3.2,6.7,4.2,8.3c8.3-8.7,21.2-13.1,38.5-13.1h11.3h5.8
				c9.7,0,16.7-1.2,20.8-3.6c4-2.4,6.2-6.4,6.2-12.1c0-3.2-1.6-6.7-4.8-9.9l9.1-9.3c2.2,3,3.4,7.1,3.4,11.7c0,10.5-4.4,18.7-13.3,25
				c-8.9,6.2-20.8,9.3-35.7,9.3h-1.4c-2.8,12.9-9.5,24.6-19.8,34.9c5.6,7.7,10.7,11.7,15.5,11.7c3.8,0,7.7-2.8,11.9-8.7
				c0.8,0.8,1.4,1.6,1.4,2.8c0,2.8-2.4,6.2-7.1,10.1c-4.6,3.8-8.9,5.6-12.3,5.6C558.9,741.2,552.8,736.7,545.8,728.1z M543.5,725.2
				l-2-2.6c-8.9-12.5-16.9-26.8-24.2-42.9l-1.4-3.2c-14.3,7.1-21.6,17.3-21.6,31.4c0,7.7,2.4,13.7,7.5,18.7c5,4.8,11.3,7.3,19.1,7.3
				C528.4,733.9,535.9,730.9,543.5,725.2z M525.8,668.4c12.9-7.7,19.3-16.3,19.3-26c0-3.8-1.4-7.1-4-9.9c-2.6-2.8-5.8-4-9.5-4
				c-8.3,0-12.5,5.2-12.5,15.7C519.2,649.7,521.4,657.9,525.8,668.4z M552.4,716.6c7.5-10.7,11.5-21.4,12.3-32h-2.4
				c-11.9,0-20.6,1.6-26.4,4.6c1,1.8,1.6,2.8,1.8,3.2l5.6,9.7C547.6,709.1,550.6,714,552.4,716.6z"/>
		</g>
	</g>
</g>
</svg>
