<?xml version="1.0" encoding="utf-8"?>
<!-- Generator: Adobe Illustrator 23.0.1, SVG Export Plug-In . SVG Version: 6.00 Build 0)  -->
<svg version="1.1" id="Layer_1" xmlns="http://www.w3.org/2000/svg" xmlns:xlink="http://www.w3.org/1999/xlink" x="0px" y="0px"
	 viewBox="0 0 133.9 133.9" style="enable-background:new 0 0 133.9 133.9;" xml:space="preserve">
<style type="text/css">
	.st0{fill:none;}
	.st1{fill:none;stroke:#000000;stroke-width:1.4728;stroke-miterlimit:10;}
</style>
<g>
	<path d="M66.9,56.7"/>
	<line class="st0" x1="70.3" y1="56.7" x2="63.4" y2="56.7"/>
	<line class="st0" x1="71.2" y1="56.7" x2="62.5" y2="56.7"/>
	<line class="st0" x1="70.3" y1="56.7" x2="63.4" y2="56.7"/>
	<line class="st0" x1="71.2" y1="56.7" x2="62.5" y2="56.7"/>
	<line class="st1" x1="66.9" y1="10.9" x2="66.9" y2="42.5"/>
	<path d="M66.7,11.8c3.1-1.1,6.4,0.9,9.6,2.2c4.4,1.8,9.1,2,14,1.6c-2,1.6-4.7,2.4-7.1,2.4c2.4,0.7,4.9,0.9,7.3,0.7
		c-3.3,1.3-6.9,2.4-10.2,1.8c-2.2-0.4-4.4-1.6-6.7-2.4c-2.2-0.9-4.7-1.6-6.9-0.7"/>
	<path d="M93.4,119.4H40.5l6-64.9h40.9L93.4,119.4z M74.3,84.3c0-8.9-3.6-16-7.8-16c-4.2,0-7.8,7.1-7.8,16H74.3z"/>
	<path d="M71.2,62.7c0-7.6-2-13.8-4.4-13.8s-4.4,6.2-4.4,13.8h-6.9c0-7.6-2-13.8-4.4-13.8s-4.4,6.2-4.4,13.8l0,0H42V35.4h49.4v27.3
		h-4.4l0,0c0-7.6-2-13.8-4.4-13.8s-4.4,6.2-4.4,13.8C78.1,62.7,71.2,62.7,71.2,62.7z"/>
	<rect x="42.3" y="28.2" width="6.7" height="10.4"/>
	<rect x="84.9" y="28.2" width="6.7" height="10.4"/>
	<rect x="74.3" y="28.2" width="6.7" height="10.4"/>
	<rect x="52.9" y="28.2" width="6.7" height="10.4"/>
	<rect x="63.6" y="28.2" width="6.7" height="10.4"/>
</g>
</svg>
