<?xml version="1.0" encoding="utf-8"?>
<!-- Generator: Adobe Illustrator 23.0.1, SVG Export Plug-In . SVG Version: 6.00 Build 0)  -->
<svg version="1.1" id="Layer_1" xmlns="http://www.w3.org/2000/svg" xmlns:xlink="http://www.w3.org/1999/xlink" x="0px" y="0px"
	 viewBox="0 0 50 50" style="enable-background:new 0 0 50 50;" xml:space="preserve">
<g>
	<g>
		<path d="M34.5,18.7c0,1.4-0.3,2.6-1,3.7c-0.6,1.1-1.5,2-2.5,2.9c-1,0.8-2.1,1.5-3.3,2.2c-1.2,0.7-2.3,1.2-3.2,1.7l0,4.4h-3.4v-6.2
			c0.8-0.4,1.9-0.9,3.2-1.5s2.3-1.2,3.1-1.7c1.1-0.9,2-1.7,2.5-2.5c0.5-0.8,0.8-1.7,0.8-2.7c0-1.4-0.4-2.5-1.2-3.3
			c-0.8-0.8-2-1.3-3.4-1.7c-1.1-0.3-2.2-0.4-3.3-0.4c-1.1,0-2.3,0-3.4,0l0.4-3.3c0.1,0,0.4,0,0.9,0c0.5,0,1,0,1.5,0
			c1.4,0,2.8,0.1,3.9,0.3c1.2,0.2,2.4,0.6,3.5,1.1c1.5,0.7,2.6,1.6,3.5,2.8C34,15.5,34.5,16.9,34.5,18.7z M25.3,41.2h-4.4v-4.6h4.4
			V41.2z"/>
	</g>
</g>
</svg>
