<svg xmlns="http://www.w3.org/2000/svg" viewBox="0 0 174 182.1"><defs><style>.cls-1{fill:#fff;stroke:#f2e4d0;stroke-miterlimit:10;stroke-width:1.33px;}.cls-2{fill:#31333a;}.cls-3{fill:#49352d;}</style></defs><title>characters</title><g id="Layer_8" data-name="Layer 8"><path class="cls-1" d="M133.29,41.11c-14.56-19.75-46.8-22.89-67.86-12.66q-1.07.53-2.1,1.08c-20.62,11.21-32.58,35.67-29.81,61h0c-2.39-12.43-10-19.36-10-5.07,0,16.92,15.91,27.31,15.91,27.31a67.46,67.46,0,0,0,12.91,31.82c11.09,14.75,31.37,24.24,38.9,24.24s30.56-14,38.06-26.79c9.69-16.57,10.61-31.84,11.91-36.27,0,0,12.2-10.11,10.88-26.26s-8.55,5.14-8.55,5.14C142.4,70.17,141.23,51.87,133.29,41.11Z"/><path d="M107,91.29a6,6,0,1,0,10.64-1.06"/><path d="M60.07,90.64A6,6,0,0,0,70.66,96.3a6,6,0,0,0,.1-5.5"/><path class="cls-2" d="M78.86,142a29.13,29.13,0,0,1,5.92-1.47,46.36,46.36,0,0,1,6-.48,40.59,40.59,0,0,1,6,.34,20.27,20.27,0,0,1,5.93,1.61c-2,.33-4,.58-6,.75s-3.94.27-5.92.3-4,0-5.95-.17A36,36,0,0,1,78.86,142Z"/><path class="cls-3" d="M65.12,141.45a18.8,18.8,0,0,1,2.2-3.86c.41-.59.85-1.1,1.29-1.64s.92-1,1.39-1.48a28.45,28.45,0,0,1,6.24-4.63A31.21,31.21,0,0,1,90.76,126a30.22,30.22,0,0,1,14.95,3.46c.59.29,1.15.67,1.72,1s1.13.69,1.66,1.08a32.79,32.79,0,0,1,3,2.71c.48.51,1,1,1.39,1.51s.84,1.13,1.23,1.75a20.25,20.25,0,0,1,2,3.91l-.52,1.09-3-1.13-1.51-.56-1.57-.42-3.1-.87-3.17-.6c-1-.23-2.12-.34-3.18-.47s-2.13-.31-3.21-.34L94.24,138c-1.08,0-2.16,0-3.23,0a78.28,78.28,0,0,0-12.85,1.29c-2.13.39-4.25.84-6.34,1.39a60.07,60.07,0,0,0-6.22,1.84Z"/><path class="cls-3" d="M37.41,99.7a129.67,129.67,0,0,0,5.74,11.9c2.05,3.8,4.34,7.43,6.7,11,1.18,1.76,2.42,3.49,3.66,5.2s2.54,3.37,3.83,5,2.67,3.24,4,4.84c.67.79,1.36,1.57,2,2.32l1,1.12c.33.35.72.76,1,1l-1.1-1c1.94,1.24,4.11,2.55,6.2,3.76s4.2,2.45,6.32,3.58,4.18,2.24,6.24,3.18a43,43,0,0,0,5.79,2.26,11,11,0,0,0,2,.42h.42a2.08,2.08,0,0,1,.36-.05l.46-.08a28.18,28.18,0,0,0,5.26-1.94,64.72,64.72,0,0,0,6-3.17c2-1.17,4.07-2.4,6.08-3.72l3-2,1.47-1,.36-.25.17-.12-.22.21-.06.06c.13-.1.33-.28.51-.44a62.34,62.34,0,0,0,4.71-4.85,98.87,98.87,0,0,0,8.55-11.43c1.31-2,2.6-4.12,3.77-6.28s2.35-4.34,3.45-6.59c2.23-4.5,4.13-9.22,6.09-14.1a67.49,67.49,0,0,1-.23,15.81,77,77,0,0,1-10.75,30.51,57.18,57.18,0,0,1-5,7c-.26.3-.5.58-.82.92l-1.23,1.14-1.52,1.37c-1,.9-2,1.78-3.09,2.62-2.11,1.69-4.26,3.35-6.54,4.91a79.83,79.83,0,0,1-7.28,4.41,38.31,38.31,0,0,1-9,3.49l-1.41.28-1.54.2c-.54,0-1.12.07-1.68.09s-1.15,0-1.72-.07a27.11,27.11,0,0,1-5.5-1.13,48.86,48.86,0,0,1-8.32-3.59c-2.49-1.35-4.87-2.74-7.13-4.24s-4.44-3.06-6.57-4.66-4.14-3.27-6.28-5.09l-.89-.76-.21-.27c-.46-.61-.76-1.05-1.12-1.57l-1-1.48c-.64-1-1.27-2-1.88-3-1.23-2-2.32-4-3.4-6.07s-2.05-4.14-3-6.25-1.77-4.26-2.53-6.44a80.07,80.07,0,0,1-3.48-13.32A56.11,56.11,0,0,1,37.41,99.7Z"/><polygon class="cls-3" points="84.5 165.57 91.51 142.83 97.5 165.86 84.5 165.57"/><path class="cls-3" d="M102.68,84.73c2.26-.8,4.46-1.8,6.71-2.71s4.49-1.85,6.89-2.6c.61-.19,1.23-.37,1.89-.52s1.39-.28,2.06-.4a11.13,11.13,0,0,1,4.31-.21,7.84,7.84,0,0,1,3.92,2.25,6.34,6.34,0,0,1,1.29,2,4.78,4.78,0,0,1,.4,2.34l-.5.34c-.79-.15-1.4-.28-2-.35s-1.12-.11-1.61-.16a20.73,20.73,0,0,1-2.81-.28c-.9-.18-1.83-.66-2.87-.85-.25,0-.51-.08-.76-.09s-.48,0-.76,0c-.53,0-1.1.08-1.67.14-2.3.27-4.69.63-7.09,1a62.61,62.61,0,0,1-7.31.75Z"/><path class="cls-3" d="M75.46,85.32a47.86,47.86,0,0,1-7-.79c-2.29-.37-4.59-.75-6.74-1a8,8,0,0,0-3,.1c-1,.22-1.85.67-2.71.81s-1.75.16-2.71.24c-.48,0-1,.08-1.57.16s-1.16.2-1.92.34l-.5-.34a5.68,5.68,0,0,1,1.56-4.17,7.85,7.85,0,0,1,3.69-2.3,9.09,9.09,0,0,1,4.15,0,28.05,28.05,0,0,1,3.89.88A58.43,58.43,0,0,1,69.21,82c2.12,1,4.19,2,6.34,2.78Z"/><path class="cls-2" d="M78.84,118.42a6.19,6.19,0,0,1,2-2.31,5,5,0,0,1,2.18-.86,5.08,5.08,0,0,1,2.33.21,6.23,6.23,0,0,1,2.54,1.66l.05.29c-1.49.35-3,.53-4.49.8s-3,.42-4.53.51Z"/><path class="cls-2" d="M92.11,117.12a6,6,0,0,1,2.54-1.66,4.94,4.94,0,0,1,2.33-.21,5,5,0,0,1,2.17.87,6.16,6.16,0,0,1,2,2.3l0,.3c-1.52-.09-3-.34-4.53-.51s-3-.45-4.49-.8Z"/><path class="cls-3" d="M37.41,35.85c9.2-9.33,18.5-18,37.9-19.22,5.31-.33,10.59-1.12,15.92-1.09,8.12.05,29.76,2.68,42,15.79,21.78,23.41,7.33,60.62,8,68.52-.86,0-.94-18-1.8-18-1.8,5.74-1.89,15.22-2.94,21.13-.8-12.68.26-30.39-4.48-42.25l.44,12c-13.83-36-19.93-8.93-19.84-11.2-.09,2.27-7.68-20.73-7.77-18.46-3.34-3.38,1.76,26,1.76,26-5.14.31-9.28-25.6-13.73-28.08-.12,1.66-.65,16,.14,17.45C88.13,56.12,84.15,41.24,79.28,39c.48,4.35,9.2,29.23,9.2,29.23-23.12-13-22-22.59-26.67-26.17l-1.47,4.54c-2.2-2-5.78,0-7.72,2.16a26,26,0,0,0-6.23,13.5L47,59.92A111.44,111.44,0,0,1,43,81.39l-1.38-6.92a57,57,0,0,0,4,26.47L43.3,99a53.94,53.94,0,0,0,.3,9.16c-.1-.91-5.34-5.66-6.19-7.14a57.08,57.08,0,0,1-3.89-8.22C30.74,85.49,22.53,51,37.41,35.85Z"/></g></svg>