<svg xmlns="http://www.w3.org/2000/svg" viewBox="0 0 174 182.1"><defs><style>.cls-1{fill:#fff;stroke:#f2e4d0;stroke-miterlimit:10;}.cls-2{fill:#36a9e1;}.cls-3{fill:#31333a;}.cls-4{fill:#f2e4d0;}.cls-5{fill:#cbbba0;}</style></defs><title>rhaegar</title><g id="Layer_9" data-name="Layer 9"><path class="cls-1" d="M146.5,62.86S97,37.53,88.18,32.29L36.09,56.56l12.15,61c6,7.56,26.34,33.47,40.91,33.47s35-25.11,41-32.79l-.13.12C131.14,109.17,146.5,62.86,146.5,62.86Z"/><path class="cls-2" d="M73,81.05a5.89,5.89,0,1,1-6-2"/><path class="cls-2" d="M108.15,79.11a5.89,5.89,0,1,1-5.57,1.37"/><path class="cls-3" d="M74.32,123.44c2.35-.35,4.8-.52,7.14-.64s4.8-.17,7.15-.17,4.79.05,7.14.17,4.79.29,7.14.64c-2.35.35-4.8.52-7.14.64s-4.8.17-7.14.17-4.8-.06-7.15-.17S76.67,123.79,74.32,123.44Z"/><path class="cls-4" d="M48.52,72.27c3.09,0,6.16.18,9.23.33s6.13.3,9.18.57a58,58,0,0,1,9.16.69c1.57.27,3,.76,4.51,1.14A21.41,21.41,0,0,1,85,76.86c.12,0,.1.14.08.26a.12.12,0,0,1-.14.1,32.51,32.51,0,0,1-4.7.69c-1.5.11-3.11.09-4.59.08-3.09,0-6-1-9-1.53s-6-1.14-9.1-1.79l-9.08-1.92a.24.24,0,0,1,.08-.48Z"/><path class="cls-4" d="M124.87,71.66c-3,.69-1.71,1.21-4.68,1.9s-6,1.26-9,1.83-5.92,1.49-9,1.7c-1.48,0-3.08.09-4.59,0a33.72,33.72,0,0,1-4.71-.6c-.12,0-.14-.1-.16-.22l.09-.14a20.41,20.41,0,0,1,4.38-1.82,29.77,29.77,0,0,1,4.48-1.23,56.93,56.93,0,0,1,9.15-.86l9.2-.63c3.08-.09,1.9-.14,5-.23.12,0,.26.08.16.22C125,71.52,125,71.64,124.87,71.66Z"/><path class="cls-5" d="M80,108.29a15.5,15.5,0,0,1,4-.73,9.45,9.45,0,0,1,4,.73,15.5,15.5,0,0,1-4,.73A9.78,9.78,0,0,1,80,108.29Z"/><path class="cls-5" d="M89.64,108.29a15.42,15.42,0,0,1,4-.73,9.38,9.38,0,0,1,4,.73,15.35,15.35,0,0,1-4,.73A10.12,10.12,0,0,1,89.64,108.29Z"/><path class="cls-4" d="M53,24.51,36.07,34.77c-4,2.46-15.61,25.57-15.54,27.75s-.46,4.15.08,6.13c.35,1.3,1.15,2.43,1.6,3.7a14.32,14.32,0,0,1,.46,5.8,141.51,141.51,0,0,1-3.78,24.64,6.65,6.65,0,0,0-.26,3.15c.44,1.8,2.26,2.83,3.54,4.16,4.91,5.1,1.61,13.85,4.36,20.37,1.79,4.26,6.14,7.45,6.55,12.05.2,2.21-.57,4.38-1,6.56a23.92,23.92,0,0,0,3.14,17.56l5.09.88,1.19,3.74,3.36-.93a42.46,42.46,0,0,0,6.45,8.74c-.78-2.86,2.45-5.93,5.26-5,1.62-.75,1.48-3.19.51-4.69s6.65.93,6.09-.77c-.88-2.7.88-6.19-1.08-8.26-1.23-1.3-3.59-1.49-4.2-3.18-.75-2,1.77-3.66,3.82-4.37-2.1-.36-3.41-2.53-3.81-4.62s-.2-4.27-.72-6.33c-.78-3.13-3.19-6-2.67-9.17.22-1.32.94-2.55.93-3.89,0-2.79-3.07-4.65-3.75-7.36-.47-1.87.28-3.8.68-5.69,1.67-7.92-2.73-15.68-4.73-23.52-2.07-8.15-1.54-16.71-1-25.1.31-4.73,1.81-10.79,6.53-11.25,1.64,1.79,4.65.15,6.08-1.81s2.86-4.5,5.29-4.61a9.08,9.08,0,0,1,2.7.55C75.14,52.16,87.6,39.24,87.6,39.24c-4.74-2-4.17-16.44-2.82-14S83.4,31,84.62,33.56a31.17,31.17,0,0,0,2.21,4.58,15.63,15.63,0,0,0,4,3.56L98.43,47c3.27,2.27,6.65,4.6,10.54,5.45,1.79.39,3.69.47,5.31,1.31a10.88,10.88,0,0,1,3.72,3.7c4.25,6.1,6.93,13.13,9.58,20.07,1.81,4.75,3.65,9.64,3.54,14.72-.12,5.75-2.7,11.11-4.67,16.51s-3.31,11.53-1,16.8a15.53,15.53,0,0,1,1,2.43c.48,1.93-.26,3.94-1,5.8-1.19,3.07,1.86,6.12.67,9.19a20.6,20.6,0,0,0-1.58,5.61,20.73,20.73,0,0,0,1.12,7.25L130.5,173c3,.38,6.82.13,8.07-2.65.7-1.55.3-3.35.53-5s1.82-3.5,3.38-2.82c-1.88-4.18,11.71-7.83,10.75-12.3a12.4,12.4,0,0,0-1.25-2.63c-1.83-3.82.4-8.24.8-12.47.62-6.54-3.1-13.87.6-19.3,1.5-2.21,4.22-4.46,3.16-6.91-.29-.67-.85-1.21-1.18-1.87-.85-1.68.07-7.2-3.58-6.19a37.27,37.27,0,0,1-.88-9.32q0-8,.36-16.07c.23-4.63.57-9.39,2.14-13.79,1.32-3.71,4.54-8.29-2.38-7.3-1.35-10.17-10.3-20.27-16.34-28.63-4.24-5.86-9.81-9.41-17.14-7.72C110,19.74,104,19.38,97.36,15.28c-2.32-1.45-5.2-3.08-8.06-2.76S84.44,15.17,81.79,16c-2.92.9-6-.11-9.08.24C65.55,17,59,20.85,53,24.51Z"/></g></svg>