<?xml version="1.0" encoding="utf-8"?>
<!-- Generator: Adobe Illustrator 23.0.1, SVG Export Plug-In . SVG Version: 6.00 Build 0)  -->
<svg version="1.1" id="Layer_1" xmlns="http://www.w3.org/2000/svg" xmlns:xlink="http://www.w3.org/1999/xlink" x="0px" y="0px"
	 viewBox="0 0 157.4 151.4" style="enable-background:new 0 0 157.4 151.4;" xml:space="preserve">
<style type="text/css">
	.st0{fill:#3A3A3A;}
	.st1{fill:#565656;}
	.st2{fill:#2B2B2B;}
</style>
<rect width="157" height="151"/>
<g>
	<polygon class="st0" points="100.8,102.9 49.8,48.6 41.5,23.3 105,99.4 	"/>
	<polygon class="st1" points="109,96.1 64.7,36.1 41.5,23.3 105,99.4 	"/>
	<path class="st2" d="M120.4,126.1l-14.7-17.5c-0.8-1-0.7-2.5,0.3-3.3l4.8-4c1-0.8,2.5-0.7,3.3,0.3l14.7,17.5c0.8,1,0.7,2.5-0.3,3.3
		l-4.8,4C122.7,127.2,121.2,127.1,120.4,126.1z"/>
	
		<rect x="95" y="98.2" transform="matrix(0.7669 -0.6418 0.6418 0.7669 -41.0004 93.6324)" class="st2" width="26.8" height="10.1"/>
</g>
<g>
	<polygon class="st0" points="58.7,99.4 122.3,23.3 114,48.6 62.9,102.9 	"/>
	<polygon class="st1" points="58.7,99.4 122.3,23.3 99.1,36.1 54.8,96.1 	"/>
	<path class="st2" d="M40.1,126.4l-4.8-4c-1-0.8-1.1-2.3-0.3-3.3l14.7-17.5c0.8-1,2.3-1.1,3.3-0.3l4.8,4c1,0.8,1.1,2.3,0.3,3.3
		l-14.7,17.5C42.6,127.1,41.1,127.2,40.1,126.4z"/>
	
		<rect x="50.3" y="89.8" transform="matrix(0.6418 -0.7669 0.7669 0.6418 -59.3407 79.4525)" class="st2" width="10.1" height="26.8"/>
</g>
</svg>
