<svg xmlns="http://www.w3.org/2000/svg" viewBox="0 0 174 182.1"><defs><style>.cls-1{fill:#fff;}.cls-2{fill:#7d4e24;}.cls-3{fill:#936037;}</style></defs><title>characters</title><g id="Layer_2" data-name="Layer 2"><path class="cls-1" d="M141.57,66.31,85.3,31.38l-56,27.44,8.3,68.38c11.88,15.68,26.75,34.7,46.12,36.43,22,2.08,37.94-19.14,51-36.43Z"/><path d="M72.15,145.18a21.78,21.78,0,0,1,6.35-2.65,33.36,33.36,0,0,1,6.91-1,28.36,28.36,0,0,1,6.92.58,22,22,0,0,1,6.57,2.31L92.1,144a60,60,0,0,0-6.57,0c-2.19.12-4.38.23-6.57.46Z"/><path class="cls-2" d="M39.64,125.7c2.42,1.5,4.73,3,6.92,4.61s4.26,3.23,6.34,4.73c4.15,3.22,8.07,6.22,12,9a68.82,68.82,0,0,0,11.18,6.57A31.6,31.6,0,0,0,86.22,153a22.56,22.56,0,0,0,9.8-2.19,56.42,56.42,0,0,0,11.07-6.57c3.81-2.77,7.73-5.88,11.88-9.11,2.07-1.61,4.15-3.23,6.34-4.84a58.59,58.59,0,0,1,6.92-4.61,64.58,64.58,0,0,1-2,8.07c-.81,2.65-1.73,5.19-2.77,7.72A70.11,70.11,0,0,1,119.2,156a48,48,0,0,1-13.38,12.45,39.71,39.71,0,0,1-9.22,4.27A36.29,36.29,0,0,1,86,174.24a39.57,39.57,0,0,1-5.3-.46L78,173.32c-.8-.23-1.61-.46-2.53-.69a29.83,29.83,0,0,1-4.73-1.85,32.84,32.84,0,0,1-4.38-2.42A50.56,50.56,0,0,1,53.13,156a70.69,70.69,0,0,1-8.42-14.53c-.58-1.27-1-2.53-1.5-3.8s-.92-2.54-1.38-3.92A54.66,54.66,0,0,1,39.64,125.7Z"/><path class="cls-2" d="M56.93,146.34a19.3,19.3,0,0,1,3.46-8.42,25.86,25.86,0,0,1,6.81-6.46,33.68,33.68,0,0,1,17.87-5.3,34.14,34.14,0,0,1,18,4.73,27.19,27.19,0,0,1,7,6.11,18.41,18.41,0,0,1,3.8,8.18,50,50,0,0,0-14.64-5.42,63.37,63.37,0,0,0-27.9.35A56.54,56.54,0,0,0,56.93,146.34Z"/><path d="M94.52,119.93a4.63,4.63,0,0,1-3.46,1.27,9.44,9.44,0,0,1-1.73-.23,4.64,4.64,0,0,1-1.73-1,4.64,4.64,0,0,1,1.73-1,4.52,4.52,0,0,1,1.73-.23,9.22,9.22,0,0,1,1.73.23A3.29,3.29,0,0,1,94.52,119.93Z"/><path d="M81.61,119.93a4.56,4.56,0,0,1-1.73,1,4.5,4.5,0,0,1-1.73.23,9.33,9.33,0,0,1-1.73-.23,4.56,4.56,0,0,1-1.73-1,4.56,4.56,0,0,1,1.73-1,4.5,4.5,0,0,1,1.73-.23,9.33,9.33,0,0,1,1.73.23A4.56,4.56,0,0,1,81.61,119.93Z"/><path class="cls-3" d="M91.52,83.61s11.88-21.1-.23-26.06C74.11,61.24,76.77,75,77.92,81.19c-13-3.23-15.8-18.45-14.76-22.14C62.58,75.65,52.9,80.27,52.9,80.27,47.59,58.13,17,104.6,54.86,112c0,0-7.38,8-17.64,5.76,0,0,6.57,9.22,2,19.37-7.5,16.61-26.52,6-26.52,6,19.14-9.57,15.79-31.13,5.18-36.9,8.88-5.07,5.42-36-7.84-3.11C.2,66.2,22.69,55.82,22.69,55.82c-1.16.81-4.5-27.9,15.68-33.09-5.88,4.61,8.07,13.37,22.14,5.53C69.73,23.19,80.57,8.43,89.45,9.47c-13.84,6.11,4.38,24,12.8,8.65,3-9.69-5.65-15-5.65-15S111.7,7.74,113.78,22c-.81-5.08,6.57-9.92,10.84-10,6.11-.12,8.76,5.65,8.53,11.06a7.69,7.69,0,0,0-2-4.38,5.08,5.08,0,0,0-5-1.5c-2.19.7-3.46,3.12-3.8,5.42a6.8,6.8,0,0,0,0,2.66c.57,1.84,2.65,2.76,4.61,3.45,22.6,7.15,25.25,28.14,27.33,30.33,1.38,1.5,3.11,3.81,3,6,0,0-6.11-5.65-8.64,1-2.66,7,6,18.57,6.34,26.06.34,6.92-1.27,13.84-.12,20.64.46,2.42,1.16,4.5,3.46,5.65,1.5.69,6.92.92,8-.57-6.34,9.45-15.45,5.88-17.53,3.22-11.76,24.56-27.33,13.61-27.33,13.61s19.14-12,11.42-24.21c-15.45-24.45.58-32.4.58-32.4-5,4.84-15.69,3.34-15.69,3.34s18.11-18.56-5.18-30C114.82,51.79,111.24,71.27,91.52,83.61Z"/><path d="M64.89,97.22a5.18,5.18,0,1,1-7,4.84v-.81"/><path class="cls-2" d="M47.71,94.91c3.46-.58,7-1,10.49-1.5,1.73-.23,3.46-.35,5.31-.58s3.45-.46,5.3-.69h.12l1.38.35a14.48,14.48,0,0,1,5.19,3,21.68,21.68,0,0,1,2.3,2.3,13.4,13.4,0,0,1,2,2.89.41.41,0,0,1-.23.57h-.11a19.58,19.58,0,0,1-3.46.35,14.67,14.67,0,0,1-3.23-.35,12.5,12.5,0,0,1-5.65-2.19l1.5.35c-1.73-.35-3.46-.81-5.19-1s-3.46-.46-5.19-.81c-3.46-.57-6.92-1.27-10.38-2.19-.23,0-.34-.23-.11-.46C47.48,95,47.59,94.91,47.71,94.91Z"/><path d="M102.94,96.06a5.18,5.18,0,1,0,7,4.85v-.81"/><path class="cls-2" d="M120.24,94.45c-3.46.81-6.92,1.5-10.38,2.19-1.73.35-3.46.58-5.19.81s-3.46.69-5.19,1l1.5-.34a15.2,15.2,0,0,1-5.65,2.19,14.67,14.67,0,0,1-3.23.35,12,12,0,0,1-3.46-.35.44.44,0,0,1-.34-.58v-.11a13.4,13.4,0,0,1,2-2.89,22.7,22.7,0,0,1,2.3-2.3,13.91,13.91,0,0,1,5.19-3l1.39-.35h.11c1.73.24,3.46.58,5.3.7s3.46.34,5.31.57c3.46.35,7,.93,10.49,1.5.23,0,.35.23.35.46A.34.34,0,0,0,120.24,94.45Z"/></g></svg>