<svg xmlns="http://www.w3.org/2000/svg" viewBox="0 0 174 182.1"><defs><style>.cls-1,.cls-3{fill:#fff;stroke:#f2e4d0;stroke-miterlimit:10;}.cls-1{stroke-width:1.33px;}.cls-2{fill:#a9ae9d;}.cls-3{stroke-width:1.33px;}.cls-4{fill:#31333a;}</style></defs><title>characters</title><g id="Layer_7" data-name="Layer 7"><path class="cls-1" d="M133.19,40.94C118.63,21.19,86.38,18.05,65.32,28.28q-1.06.52-2.1,1.08C42.61,40.57,30.64,65,33.41,90.32h0c-2.39-12.43-10-19.36-10-5.07,0,16.92,12.63,29.18,12.63,29.18A62.75,62.75,0,0,0,48,145.29c11.1,14.75,36.4,29.6,43.93,29.59s32.15-15.81,39.64-28.62c9.7-16.56,10.61-35.2,11.91-39.63A39.53,39.53,0,0,0,152,79.3c-1.32-16.15-8.55,5.14-8.55,5.14C142.29,70,141.12,51.7,133.19,40.94Z"/><path class="cls-2" d="M46.47,82.74c3.93-1,8-2,11.93-2.87,2-.45,4-.78,6.05-1.24s3.93-.91,6-1.38h.13l1.64.25a16.86,16.86,0,0,1,6.3,2.89,26.13,26.13,0,0,1,2.91,2.4A16.44,16.44,0,0,1,84,85.89a.49.49,0,0,1-.2.69h-.14a22.58,22.58,0,0,1-3.94.78A17.41,17.41,0,0,1,76,87.32a14.6,14.6,0,0,1-6.75-1.91l1.77.24c-2-.21-4.08-.56-6.09-.63s-4-.16-6.07-.37c-4.05-.29-8.11-.71-12.19-1.39-.27,0-.43-.23-.19-.52C46.22,82.9,46.34,82.75,46.47,82.74Z"/><path d="M107.42,90.18a6,6,0,1,0,10.66.71"/><path class="cls-2" d="M130.6,81.77c-4.06.64-8.11,1.15-12.16,1.66-2,.26-4,.38-6,.51s-4,.51-6.08.76l1.76-.27a17.75,17.75,0,0,1-6.7,2.06,17.26,17.26,0,0,1-3.76.13,14,14,0,0,1-4-.69.5.5,0,0,1-.35-.69v-.13a16,16,0,0,1,2.5-3.17,25.75,25.75,0,0,1,2.85-2.47,16.1,16.1,0,0,1,6.24-3l1.63-.28h.13c2,.41,3.94,1,6.06,1.23s4,.69,6.08,1.11c4,.69,8,1.65,12,2.6.27,0,.38.3.37.56C130.89,81.52,130.75,81.64,130.6,81.77Z"/><path d="M59.71,90.89a6,6,0,1,0,10.66-.71"/><path class="cls-3" d="M80.08,118.09s10.33,16.11,20.31,0"/><path class="cls-2" d="M34,94a78.4,78.4,0,0,1-4-13.27,48.35,48.35,0,0,1-.91-14.45c.25-2.45.63-4.8,1-7L30.61,56l.24-1.59.36-1.76a71.09,71.09,0,0,1,4.67-14,54.57,54.57,0,0,1,8.44-12.93,53.88,53.88,0,0,1,12-10A67.17,67.17,0,0,1,70.29,9.47,65.79,65.79,0,0,1,85.21,6.56a62.56,62.56,0,0,1,30,4.93A57.82,57.82,0,0,1,122.1,15a61.08,61.08,0,0,1,6.25,4.39,49.94,49.94,0,0,1,10.57,11.44A46.07,46.07,0,0,1,145.06,45a62.69,62.69,0,0,1,1.71,14.43A99.79,99.79,0,0,1,146,73.23a94,94,0,0,1-2.52,13.54c-1.16-4.47-2.2-8.85-3.26-13.22s-2.09-8.73-3.06-12.91a68.65,68.65,0,0,0-3.79-11.71,37.57,37.57,0,0,0-6-9.55A41.21,41.21,0,0,0,119,32.06,52.24,52.24,0,0,0,114,29.14a48.58,48.58,0,0,0-5.13-2.37,52.29,52.29,0,0,0-22.39-3.23,56.87,56.87,0,0,0-11.34,2,50.92,50.92,0,0,0-10.63,4.27,38,38,0,0,0-8.92,6.51,39.79,39.79,0,0,0-6.88,8.91A59.42,59.42,0,0,0,43.8,56.14l-.51,1.47-.62,1.64-1.26,3.2c-.86,2.09-1.72,4-2.42,5.94C36,75.82,35.37,84.85,34,94Z"/><path class="cls-4" d="M78.75,141.83a54.51,54.51,0,0,1,6-.81c2-.18,4-.26,6-.31s4,0,6,.17a30,30,0,0,1,5.94,1c-2,0-4,0-6,.09l-6,.13C86.73,142.08,82.75,142.12,78.75,141.83Z"/><path class="cls-2" d="M71.1,141.11a16,16,0,0,1,1.93-3,21.43,21.43,0,0,1,2.16-2.35,22.27,22.27,0,0,1,4.75-3.38,23.38,23.38,0,0,1,21.24-.26,21,21,0,0,1,4.95,3.47,16.52,16.52,0,0,1,2.15,2.44,16.35,16.35,0,0,1,1.78,3.08l-.31,1c-1.59-.31-3.14-.72-4.74-.89s-3.18-.43-4.78-.59a88.17,88.17,0,0,0-9.62-.28c-3.22,0-6.44.26-9.65.56-1.61.14-3.21.32-4.81.54s-3.22.39-4.8.67Z"/><path class="cls-2" d="M36.49,115a76.25,76.25,0,0,0,4.78,10.61c.84,1.71,2,3.26,2.92,4.87.52.78,1.09,1.53,1.63,2.29.28.37.53.76.82,1.13l.87,1.09c1.14,1.47,2.41,2.83,3.62,4.21l1.94,2,2,1.89c.68.62,1.38,1.2,2.07,1.79l2.12,1.7c.72.54,1.44,1.09,2.17,1.58.36.26.73.49,1.09.73l.53.33c.17.1.36.22.45.26l.32.22c2.19,1.48,4.57,3,6.89,4.38s4.68,2.8,7.05,4.09a76.89,76.89,0,0,0,7,3.5c.58.28,1.14.47,1.72.71l.85.35.82.26a11.91,11.91,0,0,0,1.59.46l.73.16.36.09h.27a4.44,4.44,0,0,0,1.09,0l.55,0a3.92,3.92,0,0,0,.67-.13,8.91,8.91,0,0,0,1.49-.39,14.61,14.61,0,0,0,1.6-.56,52.9,52.9,0,0,0,6.81-3.3c2.28-1.3,4.58-2.69,6.84-4.18s4.54-3,6.63-4.59l.69-.5,0,0s.22-.13.36-.2l.5-.33c.34-.21.7-.49,1.05-.74a13,13,0,0,0,1.06-.81,12.1,12.1,0,0,0,1.05-.87l1-.9,1-1c.68-.64,1.31-1.35,2-2a64,64,0,0,0,6.87-9.31l1.49-2.56c.5-.86.91-1.76,1.38-2.65.95-1.76,1.72-3.62,2.56-5.47s1.47-3.79,2.27-5.71,1.31-3.91,2-5.89c0,1,0,2.09,0,3.14s0,2.11,0,3.16l-.26,3.16c-.11,1-.17,2.13-.37,3.17a59.18,59.18,0,0,1-1.27,6.28c-.28,1-.49,2.11-.85,3.13l-1,3.08a56.27,56.27,0,0,1-6,11.77c-.64.92-1.24,1.87-2,2.74l-1.06,1.33-1.14,1.29q-.57.65-1.2,1.26c-.41.41-.8.83-1.26,1.23s-.87.8-1.37,1.19c-.25.19-.47.38-.74.58s-.48.37-.94.66l.67-.47c-2.29,2.05-4.49,3.86-6.85,5.65a87.46,87.46,0,0,1-7.34,5.07,53.49,53.49,0,0,1-8.29,4.33c-.72.33-1.58.58-2.37.87a20.19,20.19,0,0,1-2.61.7,11,11,0,0,1-1.39.28l-1.56.15a13.68,13.68,0,0,1-3.13-.11l-.78-.09c-.24,0-.45-.09-.67-.14L87,174.66a23.33,23.33,0,0,1-2.47-.75l-1.19-.41-1.1-.45c-.73-.32-1.5-.6-2.18-1-2.81-1.33-5.39-2.82-7.94-4.35s-4.92-3.22-7.29-4.91-4.62-3.47-6.95-5.37l.32.22c-.32-.22-.53-.39-.76-.57s-.44-.35-.65-.52c-.42-.35-.84-.7-1.23-1.06-.81-.7-1.57-1.44-2.33-2.17A61.54,61.54,0,0,1,49,148.72a57.1,57.1,0,0,1-6.8-10.38,56.24,56.24,0,0,1-2.52-5.61,51.83,51.83,0,0,1-1.8-5.85A47,47,0,0,1,36.49,115Z"/></g></svg>